<?xml version="1.0" encoding="utf-8"?>
<!-- Generator: Adobe Illustrator 18.0.0, SVG Export Plug-In . SVG Version: 6.00 Build 0)  -->
<!DOCTYPE svg PUBLIC "-//W3C//DTD SVG 1.1//EN" "http://www.w3.org/Graphics/SVG/1.1/DTD/svg11.dtd">
<svg version="1.1" id="hover" xmlns="http://www.w3.org/2000/svg" xmlns:xlink="http://www.w3.org/1999/xlink" x="0px" y="0px"
	 width="14px" height="14px" viewBox="0 0 14 14" enable-background="new 0 0 14 14" xml:space="preserve">
<g>
	<g>
		<g>
			<path fill="#B9B9D3" d="M7,1.6c3,0,5.4,2.4,5.4,5.4S10,12.4,7,12.4S1.6,10,1.6,7S4,1.6,7,1.6 M7,0C3.1,0,0,3.1,0,7s3.1,7,7,7
				s7-3.1,7-7S10.9,0,7,0L7,0z"/>
		</g>
	</g>
	<g>
		<path fill="#B9B9D3" d="M7.8,6.7c0,0.1,0,0.2,0,0.4s0,0.3-0.1,0.5c0,0.2,0,0.4-0.1,0.6c0,0.2-0.1,0.4-0.1,0.6c0,0.2,0,0.3-0.1,0.5
			s0,0.2,0,0.3c0,0.1,0,0.2,0,0.2c0,0,0.1,0,0.1,0c0.1,0,0.2-0.1,0.2-0.2C7.9,9.6,8,9.4,8.1,9.1l0.5,0.2c0,0.1-0.1,0.3-0.2,0.5
			c-0.1,0.2-0.2,0.4-0.3,0.5c-0.1,0.2-0.3,0.3-0.5,0.4s-0.4,0.2-0.6,0.2c-0.2,0-0.3,0-0.5-0.1c-0.1-0.1-0.2-0.1-0.3-0.2
			c-0.1-0.1-0.1-0.2-0.2-0.4s0-0.3,0-0.5c0-0.1,0-0.3,0-0.4c0-0.2,0-0.3,0.1-0.5c0-0.2,0-0.4,0.1-0.5c0-0.2,0.1-0.4,0.1-0.5
			c0-0.2,0-0.3,0.1-0.5c0-0.1,0-0.3,0-0.4c0-0.1,0-0.2,0-0.2c0,0-0.1,0-0.1,0c-0.1,0-0.2,0.1-0.2,0.2S5.9,7,5.8,7.3L5.3,7.1
			c0-0.1,0.1-0.3,0.2-0.5c0.1-0.2,0.2-0.4,0.3-0.5C5.9,6,6.1,5.8,6.2,5.7c0.2-0.1,0.4-0.2,0.6-0.2c0.2,0,0.3,0,0.4,0.1
			c0.1,0.1,0.2,0.1,0.3,0.2C7.6,6,7.7,6.1,7.7,6.2S7.8,6.5,7.8,6.7z M7.9,3.8c0,0.1,0,0.2-0.1,0.3c0,0.1-0.1,0.2-0.2,0.3
			S7.5,4.6,7.4,4.6c-0.1,0-0.2,0.1-0.3,0.1c-0.1,0-0.2,0-0.3-0.1c-0.1,0-0.2-0.1-0.2-0.2S6.5,4.3,6.4,4.2c0-0.1,0-0.2,0-0.3
			c0-0.1,0-0.2,0.1-0.3c0-0.1,0.1-0.2,0.2-0.3s0.2-0.1,0.3-0.2C7,3,7.1,3,7.2,3c0.1,0,0.2,0,0.3,0.1s0.2,0.1,0.2,0.2
			c0.1,0.1,0.1,0.2,0.1,0.3C7.9,3.6,7.9,3.7,7.9,3.8z"/>
	</g>
</g>
</svg>
