<?xml version="1.0" encoding="utf-8"?>
<!-- Generator: Adobe Illustrator 18.0.0, SVG Export Plug-In . SVG Version: 6.00 Build 0)  -->
<!DOCTYPE svg PUBLIC "-//W3C//DTD SVG 1.1//EN" "http://www.w3.org/Graphics/SVG/1.1/DTD/svg11.dtd">
<svg version="1.1" id="selected" xmlns="http://www.w3.org/2000/svg" xmlns:xlink="http://www.w3.org/1999/xlink" x="0px" y="0px"
	 width="24px" height="24px" viewBox="0 0 24 24" enable-background="new 0 0 24 24" xml:space="preserve">
<g>
	<path fill="#40404C" d="M12,2c5.5,0,10,4.5,10,10s-4.5,10-10,10S2,17.5,2,12S6.5,2,12,2 M12,0C5.4,0,0,5.4,0,12s5.4,12,12,12
		c6.6,0,12-5.4,12-12S18.6,0,12,0L12,0z"/>
	<g>
		<path fill="#40404C" d="M15.8,13.9c-0.2-0.1-1-0.6-1.3-0.3C14.1,14,13,14.9,12,14.9v0v0c-1,0-2.1-0.9-2.5-1.3
			c-0.3-0.3-1.1,0.2-1.3,0.3c-0.6,0.4-0.7,0.5-1.2,1.1c-0.3,0.3-0.5,0.7-0.7,1c1.3,1.8,3.4,3,5.7,3c2.4,0,4.5-1.2,5.7-3
			c-0.2-0.3-0.4-0.7-0.7-1C16.6,14.5,16.4,14.3,15.8,13.9z"/>
	</g>
	<path fill="#40404C" d="M15.2,8.4c0,2-1.6,4-3.2,4s-3.2-2.1-3.2-4s1.4-3.6,3.2-3.6S15.2,6.4,15.2,8.4z"/>
</g>
</svg>
