<svg xmlns="http://www.w3.org/2000/svg" width="24" height="24" viewBox="0 0 24 24"><path fill="#fff" d="M12 2c5.5 0 10 4.5 10 10s-4.5 10-10 10S2 17.5 2 12 6.5 2 12 2m0-2C5.4 0 0 5.4 0 12s5.4 12 12 12 12-5.4 12-12S18.6 0 12 0zM15.8 13.9c-.2-.1-1-.6-1.3-.3-.4.4-1.5 1.3-2.5 1.3s-2.1-.9-2.5-1.3c-.3-.3-1.1.2-1.3.3-.6.4-.7.5-1.2 1.1-.3.3-.5.7-.7 1 1.3 1.8 3.4 3 5.7 3 2.4 0 4.5-1.2 5.7-3-.2-.3-.4-.7-.7-1-.4-.5-.6-.7-1.2-1.1zM15.2 8.4c0 2-1.6 4-3.2 4s-3.2-2.1-3.2-4 1.4-3.6 3.2-3.6 3.2 1.6 3.2 3.6z"/></svg>