<?xml version="1.0" encoding="utf-8"?>
<!-- Generator: Adobe Illustrator 19.2.0, SVG Export Plug-In . SVG Version: 6.00 Build 0)  -->
<!DOCTYPE svg PUBLIC "-//W3C//DTD SVG 1.1//EN" "http://www.w3.org/Graphics/SVG/1.1/DTD/svg11.dtd">
<svg version="1.1" xmlns="http://www.w3.org/2000/svg" xmlns:xlink="http://www.w3.org/1999/xlink" x="0px" y="0px" width="6.2px"
	 height="10px" viewBox="0 0 6.2 10" enable-background="new 0 0 6.2 10" xml:space="preserve">
<g id="dark_gray_left">
	<polygon fill="#2F2F39" points="6.2,1.4 4.8,0 0,4.8 0,5.2 4.8,10 6.2,8.6 2.6,5 	"/>
</g>
<g id="dark_gray_left_pressed" display="none">
	<polygon display="inline" fill="#35353F" points="10,2.2 7.7,0 0,7.7 0,8.2 7.7,16 9.9,13.8 4.2,8 	"/>
</g>
<g id="white_left">
</g>
<g id="white_left_pressed" display="none">
	<polygon display="inline" fill="#F0F0F8" points="10,2.2 7.8,0 0,7.7 0,8.2 7.8,16 10,13.8 4.2,8 	"/>
</g>
<g id="dark_gray_right">
</g>
<g id="dark_gray_right_pressed" display="none">
	<polygon display="inline" fill="#35353F" points="0,2.2 2.2,0 10,7.7 10,8.2 2.2,16 0,13.8 5.8,8 	"/>
</g>
<g id="white_right" display="none">
	<polygon display="inline" fill="#FFFFFF" points="0,2.2 2.2,0 10,7.7 10,8.2 2.2,16 0,13.8 5.8,8 	"/>
</g>
<g id="orange_right">
</g>
<g id="orange_right_pressed" display="none">
	<polygon display="inline" fill="#BF5200" points="0,2.2 2.2,0 10,7.7 10,8.2 2.2,16 0,13.8 5.8,8 	"/>
</g>
</svg>
