<?xml version="1.0" encoding="utf-8"?>
<!-- Generator: Adobe Illustrator 18.0.0, SVG Export Plug-In . SVG Version: 6.00 Build 0)  -->
<!DOCTYPE svg PUBLIC "-//W3C//DTD SVG 1.1//EN" "http://www.w3.org/Graphics/SVG/1.1/DTD/svg11.dtd">
<svg version="1.1" id="default" xmlns="http://www.w3.org/2000/svg" xmlns:xlink="http://www.w3.org/1999/xlink" x="0px" y="0px"
	 width="22px" height="22px" viewBox="0 0 22 22" enable-background="new 0 0 22 22" xml:space="preserve">
<g>
	<g>
		<circle fill="#F54250" cx="11" cy="11" r="11"/>
	</g>
	<g>
		<path fill="#FCFCFC" d="M11,6.8c2.3,0,4.2,1.9,4.2,4.2s-1.9,4.2-4.2,4.2S6.8,13.4,6.8,11S8.7,6.8,11,6.8 M11,5.5
			C8,5.5,5.5,8,5.5,11S8,16.5,11,16.5s5.5-2.5,5.5-5.5S14.1,5.5,11,5.5L11,5.5z"/>
		<g>
			<path fill="#FFFFFF" d="M10.5,9.4V7.8C9.2,8,8.1,9.1,7.8,10.5h1.6C9.6,9.9,10,9.5,10.5,9.4z"/>
			<path fill="#FFFFFF" d="M12.7,10.5h1.6C14,9.1,12.9,8,11.5,7.8v1.5C12.1,9.5,12.5,9.9,12.7,10.5z"/>
			<path fill="#FFFFFF" d="M11.5,12.7v1.5c1.4-0.2,2.5-1.4,2.7-2.8h-1.5C12.6,12.1,12.1,12.5,11.5,12.7z"/>
			<path fill="#FFFFFF" d="M9.3,11.5H7.8c0.2,1.4,1.3,2.6,2.7,2.8v-1.5C10,12.5,9.5,12.1,9.3,11.5z"/>
		</g>
	</g>
</g>
</svg>
