<svg xmlns="http://www.w3.org/2000/svg" width="44" height="44" viewBox="0 0 44 44"><circle fill="#CC313D" cx="22" cy="22" r="22"/><path fill="#FCFCFC" d="M22.1 13.6c4.7 0 8.5 3.8 8.5 8.5s-3.8 8.5-8.5 8.5-8.5-3.8-8.5-8.5 3.8-8.5 8.5-8.5m0-2.5c-6.1 0-11 4.9-11 11s4.9 11 11 11 11-4.9 11-11-4.9-11-11-11z"/><g fill="#fff"><path d="M21.1 18.7v-3.1c-2.7.4-4.9 2.5-5.4 5.2h3.1c.4-.9 1.2-1.7 2.3-2.1zM25.4 20.9h3.1c-.5-2.7-2.7-4.8-5.4-5.2v3.1c1 .3 1.9 1.1 2.3 2.1zM23.1 25.4v3.1c2.8-.4 5.1-2.7 5.4-5.6h-3.1c-.2 1.2-1.1 2.2-2.3 2.5zM18.7 22.9h-3.1c.4 2.9 2.6 5.1 5.4 5.6v-3.1c-1.1-.3-2-1.3-2.3-2.5z"/></g></svg>