<?xml version="1.0" encoding="utf-8"?>
<!-- Generator: Adobe Illustrator 18.0.0, SVG Export Plug-In . SVG Version: 6.00 Build 0)  -->
<!DOCTYPE svg PUBLIC "-//W3C//DTD SVG 1.1//EN" "http://www.w3.org/Graphics/SVG/1.1/DTD/svg11.dtd">
<svg version="1.1" id="default" xmlns="http://www.w3.org/2000/svg" xmlns:xlink="http://www.w3.org/1999/xlink" x="0px" y="0px"
	 width="22px" height="22px" viewBox="0 0 22 22" enable-background="new 0 0 22 22" xml:space="preserve">
<g>
	<g>
		<circle fill="#047EA9" cx="11" cy="11" r="11"/>
	</g>
	<g>
		<circle fill="#FFFFFF" cx="9.6" cy="16.4" r="1"/>
		<circle fill="#FFFFFF" cx="13.3" cy="16.5" r="1"/>
		<path fill="#FFFFFF" d="M16.2,7.2H12H9.4H7.7L7.2,5.3H5.6c-0.2,0-0.3,0.1-0.4,0.2L5,5.6C4.9,5.8,5,6,5.2,6h1.2l2.2,7.9
			c0.1,0.3,0.4,0.5,0.7,0.5h5c0.2,0,0.4-0.1,0.5-0.3l0.1-0.2c0.1-0.2,0-0.3-0.2-0.3H9.4L9,11.8h0.4h5.2h0.3l0.1-0.2c0,0,0,0,0,0
			l1.6-3.7C16.7,7.5,16.5,7.2,16.2,7.2z"/>
	</g>
</g>
</svg>
