<?xml version="1.0" encoding="utf-8"?>
<!-- Generator: Adobe Illustrator 18.0.0, SVG Export Plug-In . SVG Version: 6.00 Build 0)  -->
<!DOCTYPE svg PUBLIC "-//W3C//DTD SVG 1.1//EN" "http://www.w3.org/Graphics/SVG/1.1/DTD/svg11.dtd">
<svg version="1.1" id="hover" xmlns="http://www.w3.org/2000/svg" xmlns:xlink="http://www.w3.org/1999/xlink" x="0px" y="0px"
	 width="14px" height="14px" viewBox="0 0 14 14" enable-background="new 0 0 14 14" xml:space="preserve">
<g>
	<path fill="#B9B9D3" d="M7,2c2.8,0,5,2.2,5,5s-2.2,5-5,5S2,9.8,2,7S4.2,2,7,2 M7,0C3.1,0,0,3.1,0,7s3.1,7,7,7s7-3.1,7-7S10.9,0,7,0
		L7,0z"/>
	<g>
		<path fill="#B9B9D3" d="M7.8,5.2c0-0.2,0-0.3,0-0.4c0-0.1-0.1-0.3-0.1-0.4S7.4,4.2,7.3,4.2C7.2,4.1,7.1,4.1,6.9,4.1
			c-0.1,0-0.2,0-0.2,0s-0.2,0-0.2,0.1c-0.1,0-0.1,0.1-0.2,0.1S6.1,4.4,6.1,4.4c0.1,0.1,0.1,0.2,0.1,0.3c0,0.1,0,0.2,0,0.3
			c0,0.1,0,0.1,0,0.2c0,0.1-0.1,0.2-0.1,0.2C6.1,5.4,6,5.5,5.9,5.5c-0.1,0-0.2,0.1-0.3,0.1s-0.2,0-0.3-0.1S5.2,5.5,5.1,5.4
			C5.1,5.3,5,5.3,5,5.2c0-0.1,0-0.2,0-0.3c0-0.2,0.1-0.4,0.2-0.5C5.2,4.1,5.4,4,5.6,3.8C5.8,3.7,6,3.6,6.2,3.5s0.5-0.1,0.9-0.1
			c0.4,0,0.8,0,1,0.1c0.3,0.1,0.5,0.2,0.7,0.4C9,4,9.1,4.2,9.2,4.4S9.3,4.8,9.3,5c0,0.2-0.1,0.5-0.2,0.7S8.9,6.1,8.7,6.2
			C8.6,6.4,8.4,6.6,8.2,6.7C8,6.9,7.9,7,7.7,7.1C7.5,7.3,7.4,7.4,7.3,7.5S7.1,7.7,7.1,7.9c0,0.1,0,0.2,0.1,0.2
			c0.1,0.1,0.2,0.1,0.3,0.1c0,0,0.1,0,0.1,0c0.1,0,0.1,0,0.2,0L8,8.6c-0.1,0-0.2,0.1-0.3,0.1c-0.1,0-0.2,0.1-0.3,0.1
			c-0.1,0-0.2,0-0.3,0c-0.1,0-0.2,0-0.2,0c-0.1,0-0.2,0-0.3,0c-0.1,0-0.2-0.1-0.3-0.1S6.2,8.6,6.2,8.5C6.1,8.4,6.1,8.3,6.1,8.2
			c0-0.1,0-0.2,0-0.2c0-0.1,0.1-0.2,0.1-0.3c0.1-0.1,0.1-0.2,0.3-0.3C6.6,7.2,6.8,7.1,7,6.9c0.1-0.1,0.2-0.2,0.3-0.4
			c0.1-0.1,0.2-0.2,0.3-0.4C7.6,6,7.7,5.9,7.7,5.7S7.8,5.4,7.8,5.2z M7.9,10.1c0,0.1,0,0.2-0.1,0.3s-0.1,0.2-0.2,0.3
			c-0.1,0.1-0.2,0.1-0.2,0.2s-0.2,0.1-0.3,0.1c-0.1,0-0.2,0-0.3-0.1c-0.1,0-0.2-0.1-0.2-0.2s-0.1-0.2-0.2-0.3s-0.1-0.2-0.1-0.3
			c0-0.1,0-0.2,0.1-0.3c0-0.1,0.1-0.2,0.2-0.3c0.1-0.1,0.1-0.1,0.2-0.2S7,9.3,7.1,9.3c0.1,0,0.2,0,0.3,0.1s0.2,0.1,0.2,0.2
			c0.1,0.1,0.1,0.2,0.2,0.3S7.9,10,7.9,10.1z"/>
	</g>
</g>
</svg>
