<?xml version="1.0" encoding="utf-8"?>
<!-- Generator: Adobe Illustrator 18.1.0, SVG Export Plug-In . SVG Version: 6.00 Build 0)  -->
<!DOCTYPE svg PUBLIC "-//W3C//DTD SVG 1.1//EN" "http://www.w3.org/Graphics/SVG/1.1/DTD/svg11.dtd">
<svg version="1.1" id="Layer_1" xmlns="http://www.w3.org/2000/svg" xmlns:xlink="http://www.w3.org/1999/xlink" x="0px" y="0px"
	 viewBox="0 0 139.5 25" enable-background="new 0 0 139.5 25" xml:space="preserve">
<g>
	<path fill="#AEAEBC" d="M14.3,20.4c-0.3-0.7-0.5-1.3-0.7-2c-0.2-0.6-0.4-1.2-0.6-1.8H6.2c-0.2,0.6-0.5,1.2-0.7,1.8
		c-0.2,0.6-0.5,1.3-0.7,2H3.4c0.5-1.4,1-2.8,1.5-4c0.5-1.2,0.9-2.4,1.4-3.5c0.5-1.1,0.9-2.2,1.3-3.2C8,8.6,8.5,7.6,9,6.6h1.2
		c0.5,1,1,2.1,1.4,3.1c0.4,1,0.9,2.1,1.3,3.2c0.5,1.1,0.9,2.3,1.4,3.5s1,2.6,1.5,4H14.3z M9.5,8.1c-0.5,1.2-1,2.3-1.5,3.5
		s-1,2.5-1.5,3.8h5.9c-0.5-1.4-1-2.7-1.5-3.8C10.5,10.4,10,9.3,9.5,8.1z"/>
	<path fill="#AEAEBC" d="M21.7,20.6c-0.8,0-1.5-0.1-2.1-0.4s-1.1-0.6-1.5-1.1c-0.4-0.5-0.7-1-0.9-1.7s-0.3-1.4-0.3-2.2
		c0-0.8,0.1-1.6,0.3-2.2c0.2-0.7,0.5-1.2,1-1.7c0.4-0.5,0.9-0.9,1.5-1.1c0.6-0.3,1.2-0.4,2-0.4c0.6,0,1.1,0,1.6,0.1
		c0.5,0.1,0.9,0.2,1.1,0.4l-0.3,1.1c-0.3-0.1-0.6-0.2-0.9-0.3c-0.3-0.1-0.8-0.1-1.3-0.1c-1.1,0-2,0.4-2.6,1.1
		c-0.6,0.7-0.9,1.8-0.9,3.2c0,0.6,0.1,1.2,0.2,1.7c0.1,0.5,0.4,1,0.7,1.3c0.3,0.4,0.7,0.7,1.2,0.9c0.5,0.2,1,0.3,1.7,0.3
		c0.6,0,1-0.1,1.4-0.2c0.4-0.1,0.7-0.2,0.8-0.3l0.3,1.1c-0.2,0.1-0.6,0.3-1.1,0.4C22.8,20.6,22.2,20.6,21.7,20.6z"/>
	<path fill="#AEAEBC" d="M30.6,20.6c-0.8,0-1.5-0.1-2.1-0.4s-1.1-0.6-1.5-1.1c-0.4-0.5-0.7-1-0.9-1.7s-0.3-1.4-0.3-2.2
		c0-0.8,0.1-1.6,0.3-2.2c0.2-0.7,0.5-1.2,1-1.7c0.4-0.5,0.9-0.9,1.5-1.1c0.6-0.3,1.2-0.4,2-0.4c0.6,0,1.1,0,1.6,0.1
		c0.5,0.1,0.9,0.2,1.1,0.4l-0.3,1.1c-0.3-0.1-0.6-0.2-0.9-0.3c-0.3-0.1-0.8-0.1-1.3-0.1c-1.1,0-2,0.4-2.6,1.1
		c-0.6,0.7-0.9,1.8-0.9,3.2c0,0.6,0.1,1.2,0.2,1.7c0.1,0.5,0.4,1,0.7,1.3c0.3,0.4,0.7,0.7,1.2,0.9c0.5,0.2,1,0.3,1.7,0.3
		c0.6,0,1-0.1,1.4-0.2c0.4-0.1,0.7-0.2,0.8-0.3l0.3,1.1c-0.2,0.1-0.6,0.3-1.1,0.4C31.7,20.6,31.1,20.6,30.6,20.6z"/>
	<path fill="#AEAEBC" d="M44,15.3c0,0.8-0.1,1.6-0.3,2.2c-0.2,0.7-0.6,1.2-1,1.7s-0.9,0.8-1.5,1.1c-0.6,0.3-1.2,0.4-1.9,0.4
		c-0.7,0-1.3-0.1-1.9-0.4c-0.6-0.3-1.1-0.6-1.5-1.1s-0.7-1-1-1.7c-0.2-0.7-0.4-1.4-0.4-2.2c0-0.8,0.1-1.6,0.4-2.2s0.6-1.2,1-1.7
		s0.9-0.8,1.5-1.1c0.6-0.3,1.2-0.4,1.9-0.4c0.7,0,1.3,0.1,1.9,0.4c0.6,0.3,1.1,0.6,1.5,1.1s0.7,1,1,1.7C43.9,13.7,44,14.4,44,15.3z
		 M42.6,15.3c0-1.3-0.3-2.3-0.9-3.1c-0.6-0.8-1.4-1.1-2.4-1.1c-1,0-1.8,0.4-2.4,1.1C36.3,12.9,36,14,36,15.3c0,1.3,0.3,2.3,0.9,3.1
		c0.6,0.8,1.4,1.1,2.4,1.1c1,0,1.8-0.4,2.4-1.1C42.3,17.6,42.6,16.6,42.6,15.3z"/>
	<path fill="#AEAEBC" d="M54.5,20.1c-0.4,0.1-0.9,0.2-1.6,0.4s-1.5,0.2-2.4,0.2c-0.8,0-1.4-0.1-1.9-0.3c-0.5-0.2-0.9-0.5-1.3-1
		s-0.5-0.9-0.7-1.5c-0.1-0.6-0.2-1.2-0.2-1.9v-5.8h1.3v5.4c0,0.7,0.1,1.4,0.2,1.9c0.1,0.5,0.3,0.9,0.5,1.2s0.5,0.5,0.9,0.7
		c0.4,0.1,0.8,0.2,1.4,0.2c0.6,0,1.1,0,1.6-0.1c0.5-0.1,0.7-0.1,0.9-0.2v-9.1h1.3V20.1z"/>
	<path fill="#AEAEBC" d="M57.6,10.4c0.4-0.1,0.9-0.2,1.6-0.4s1.5-0.2,2.4-0.2c0.8,0,1.4,0.1,2,0.3c0.5,0.2,0.9,0.6,1.3,1
		c0.3,0.4,0.5,0.9,0.7,1.5c0.1,0.6,0.2,1.2,0.2,1.9v5.8h-1.3v-5.4c0-0.7-0.1-1.4-0.2-1.9S64,12.3,63.7,12c-0.2-0.3-0.5-0.5-0.9-0.7
		s-0.9-0.2-1.4-0.2c-0.6,0-1.1,0-1.6,0.1c-0.4,0.1-0.7,0.1-0.9,0.2v9.1h-1.3V10.4z"/>
	<path fill="#AEAEBC" d="M69.9,10.1H74v1.1h-4.1v5.5c0,0.6,0,1.1,0.1,1.4c0.1,0.4,0.2,0.6,0.4,0.8c0.2,0.2,0.4,0.3,0.7,0.4
		c0.3,0.1,0.6,0.1,0.9,0.1c0.5,0,1-0.1,1.3-0.2c0.3-0.1,0.6-0.2,0.8-0.3l0.3,1.1c-0.2,0.1-0.5,0.3-1,0.4s-1,0.2-1.5,0.2
		c-0.6,0-1.2-0.1-1.6-0.2c-0.4-0.2-0.8-0.4-1-0.8c-0.3-0.3-0.4-0.8-0.5-1.3s-0.2-1.1-0.2-1.8V7l1.3-0.2V10.1z"/>
	<path fill="#AEAEBC" d="M86.2,20.7c-0.9,0-1.7-0.2-2.5-0.5c-0.8-0.3-1.4-0.8-2-1.4c-0.6-0.6-1-1.4-1.3-2.3
		c-0.3-0.9-0.5-1.9-0.5-3.1c0-1.2,0.2-2.2,0.5-3.1c0.4-0.9,0.8-1.7,1.4-2.3s1.3-1.1,2-1.4c0.8-0.3,1.6-0.5,2.4-0.5
		c0.5,0,1,0,1.4,0.1c0.4,0.1,0.8,0.1,1.1,0.2c0.3,0.1,0.6,0.2,0.8,0.3c0.2,0.1,0.4,0.2,0.5,0.3l-0.4,1.2C89.4,8.2,89,8,88.5,7.8
		c-0.5-0.2-1.1-0.3-1.9-0.3c-0.9,0-1.6,0.1-2.3,0.4c-0.6,0.3-1.2,0.7-1.6,1.2s-0.8,1.2-1,1.9c-0.2,0.7-0.3,1.5-0.3,2.4
		c0,0.9,0.1,1.8,0.3,2.5c0.2,0.7,0.5,1.4,1,1.9c0.4,0.5,0.9,0.9,1.6,1.2s1.3,0.4,2.1,0.4c0.9,0,1.6-0.1,2.2-0.2
		c0.6-0.2,1-0.3,1.4-0.5l0.4,1.2C90.2,20,90,20,89.8,20.1s-0.5,0.2-0.9,0.3c-0.3,0.1-0.7,0.2-1.2,0.2S86.8,20.7,86.2,20.7z"/>
	<path fill="#AEAEBC" d="M91.7,15.2c0-0.9,0.1-1.7,0.4-2.4s0.6-1.2,1-1.7c0.4-0.5,0.9-0.8,1.4-1s1.1-0.3,1.7-0.3
		c1.3,0,2.3,0.4,3,1.2c0.8,0.8,1.1,2.1,1.1,3.8c0,0.1,0,0.2,0,0.3c0,0.1,0,0.2,0,0.3H93c0,1.3,0.4,2.2,0.9,2.9c0.6,0.7,1.5,1,2.8,1
		c0.7,0,1.3-0.1,1.7-0.2c0.4-0.1,0.7-0.2,0.9-0.3l0.2,1.1c-0.2,0.1-0.5,0.2-1,0.4c-0.5,0.1-1.1,0.2-1.8,0.2c-0.9,0-1.7-0.1-2.3-0.4
		c-0.6-0.3-1.2-0.6-1.6-1.1c-0.4-0.5-0.7-1-0.9-1.7S91.7,16,91.7,15.2z M99,14.4c0-1.1-0.3-1.9-0.8-2.5c-0.5-0.6-1.2-0.9-2-0.9
		c-0.5,0-0.9,0.1-1.2,0.3c-0.4,0.2-0.7,0.4-1,0.7c-0.3,0.3-0.5,0.7-0.6,1.1s-0.2,0.8-0.3,1.3H99z"/>
	<path fill="#AEAEBC" d="M102.9,10.4c0.4-0.1,0.9-0.2,1.6-0.4s1.5-0.2,2.4-0.2c0.8,0,1.4,0.1,2,0.3c0.5,0.2,0.9,0.6,1.3,1
		c0.3,0.4,0.5,0.9,0.7,1.5c0.1,0.6,0.2,1.2,0.2,1.9v5.8h-1.3v-5.4c0-0.7-0.1-1.4-0.2-1.9s-0.3-0.9-0.5-1.2c-0.2-0.3-0.5-0.5-0.9-0.7
		s-0.9-0.2-1.4-0.2c-0.6,0-1.1,0-1.6,0.1c-0.4,0.1-0.7,0.1-0.9,0.2v9.1h-1.3V10.4z"/>
	<path fill="#AEAEBC" d="M115.2,10.1h4.1v1.1h-4.1v5.5c0,0.6,0,1.1,0.1,1.4c0.1,0.4,0.2,0.6,0.4,0.8c0.2,0.2,0.4,0.3,0.7,0.4
		c0.3,0.1,0.6,0.1,0.9,0.1c0.5,0,1-0.1,1.3-0.2c0.3-0.1,0.6-0.2,0.8-0.3l0.3,1.1c-0.2,0.1-0.5,0.3-1,0.4s-1,0.2-1.5,0.2
		c-0.6,0-1.2-0.1-1.6-0.2c-0.4-0.2-0.8-0.4-1-0.8c-0.3-0.3-0.4-0.8-0.5-1.3s-0.2-1.1-0.2-1.8V7l1.3-0.2V10.1z"/>
	<path fill="#AEAEBC" d="M120.8,15.2c0-0.9,0.1-1.7,0.4-2.4s0.6-1.2,1-1.7c0.4-0.5,0.9-0.8,1.4-1s1.1-0.3,1.7-0.3
		c1.3,0,2.3,0.4,3,1.2c0.8,0.8,1.1,2.1,1.1,3.8c0,0.1,0,0.2,0,0.3c0,0.1,0,0.2,0,0.3h-7.3c0,1.3,0.4,2.2,0.9,2.9
		c0.6,0.7,1.5,1,2.8,1c0.7,0,1.3-0.1,1.7-0.2c0.4-0.1,0.7-0.2,0.9-0.3l0.2,1.1c-0.2,0.1-0.5,0.2-1,0.4c-0.5,0.1-1.1,0.2-1.8,0.2
		c-0.9,0-1.7-0.1-2.3-0.4c-0.6-0.3-1.2-0.6-1.6-1.1c-0.4-0.5-0.7-1-0.9-1.7S120.8,16,120.8,15.2z M128.2,14.4c0-1.1-0.3-1.9-0.8-2.5
		c-0.5-0.6-1.2-0.9-2-0.9c-0.5,0-0.9,0.1-1.2,0.3c-0.4,0.2-0.7,0.4-1,0.7c-0.3,0.3-0.5,0.7-0.6,1.1s-0.2,0.8-0.3,1.3H128.2z"/>
	<path fill="#AEAEBC" d="M135.6,9.9c0.4,0,0.8,0,1.2,0.1c0.4,0.1,0.6,0.1,0.8,0.2l-0.3,1.1c-0.1-0.1-0.3-0.1-0.7-0.2
		c-0.3-0.1-0.8-0.1-1.3-0.1c-0.6,0-1,0-1.3,0.1c-0.3,0.1-0.6,0.1-0.7,0.2v9.1h-1.3v-9.9c0.3-0.1,0.8-0.3,1.4-0.5
		C134.1,10,134.8,9.9,135.6,9.9z"/>
</g>
</svg>
