<?xml version="1.0" encoding="utf-8"?>
<!-- Generator: Adobe Illustrator 18.1.0, SVG Export Plug-In . SVG Version: 6.00 Build 0)  -->
<!DOCTYPE svg PUBLIC "-//W3C//DTD SVG 1.1//EN" "http://www.w3.org/Graphics/SVG/1.1/DTD/svg11.dtd">
<svg version="1.1" id="Layer_1" xmlns="http://www.w3.org/2000/svg" xmlns:xlink="http://www.w3.org/1999/xlink" x="0px" y="0px"
	 viewBox="0 0 279 25" enable-background="new 0 0 279 25" xml:space="preserve">
<g>
	<g>
		<defs>
			<rect id="SVGID_1_" x="-8" y="-11.7" width="132.6" height="46.7"/>
		</defs>
		<clipPath id="SVGID_2_">
			<use xlink:href="#SVGID_1_"  overflow="visible"/>
		</clipPath>
		<rect x="19.6" y="7.5" clip-path="url(#SVGID_2_)" fill="#FFFFFF" width="3" height="13.6"/>
		<g clip-path="url(#SVGID_2_)">
			<defs>
				<rect id="SVGID_3_" x="-8" y="-11.7" width="132.6" height="46.7"/>
			</defs>
			<clipPath id="SVGID_4_">
				<use xlink:href="#SVGID_3_"  overflow="visible"/>
			</clipPath>
			<path clip-path="url(#SVGID_4_)" fill="#FFFFFF" d="M42.6,8.7c-0.4-0.5-1-0.9-1.7-1.1c-0.7-0.3-1.5-0.4-2.5-0.4
				c-0.8,0-1.6,0.1-2.3,0.2c-0.7,0.1-1.2,0.3-1.6,0.4l-0.3,0.1l0.4,2.7l0.4-0.2c0.3-0.1,0.7-0.2,1.2-0.3c0.5-0.1,1.2-0.2,1.9-0.2
				c0.5,0,1,0.1,1.3,0.2c0.3,0.1,0.6,0.3,0.7,0.6c0.2,0.2,0.3,0.5,0.4,0.8c0.1,0.3,0.1,0.7,0.1,1v0.2c-0.1,0-0.3-0.1-0.5-0.1
				c-0.2,0-0.5-0.1-0.7-0.1c-1.1-0.1-2,0-2.9,0.2c-0.7,0.2-1.3,0.4-1.8,0.7c-0.5,0.3-1,0.8-1.3,1.4c-0.3,0.6-0.5,1.2-0.5,2
				c0,0.8,0.1,1.5,0.4,2.1c0.3,0.6,0.7,1.1,1.2,1.4c0.5,0.3,1.1,0.6,1.7,0.8c0.6,0.2,1.3,0.2,2.1,0.2c0.5,0,1,0,1.6-0.1
				c0.5,0,1-0.1,1.5-0.1c0.5-0.1,0.9-0.1,1.2-0.2l1.1-0.2v-8.4c0-0.8-0.1-1.5-0.3-2.1C43.3,9.8,43,9.2,42.6,8.7 M40.7,15.4v3.3
				c-0.2,0-0.4,0.1-0.7,0.1c-0.4,0-0.9,0-1.4,0c-0.8,0-1.5-0.1-2-0.4c-0.4-0.3-0.6-0.7-0.6-1.4c0-0.4,0.1-0.6,0.2-0.8
				c0.2-0.2,0.4-0.4,0.7-0.5c0.3-0.1,0.6-0.2,0.9-0.3c0.4,0,0.7-0.1,1.1-0.1c0.5,0,0.9,0,1.3,0.1C40.5,15.3,40.6,15.3,40.7,15.4"/>
			<path clip-path="url(#SVGID_4_)" fill="#FFFFFF" d="M31.8,18.3c-0.1,0-0.2,0.1-0.4,0.1c-0.4,0.1-0.9,0.2-1.5,0.2
				c-0.4,0-0.7,0-0.9-0.1c-0.2-0.1-0.4-0.2-0.6-0.4c-0.2-0.2-0.3-0.5-0.4-0.8c-0.1-0.4-0.1-0.9-0.1-1.5v-5.6h4.9V7.5h-4.9V4.7
				l-3,0.5v10.6c0,0.9,0.1,1.7,0.2,2.3c0.2,0.7,0.4,1.3,0.8,1.8c0.4,0.5,0.9,0.9,1.5,1.1c0.6,0.2,1.4,0.4,2.3,0.4
				c0.8,0,1.5-0.1,2.1-0.3c0.6-0.2,0.9-0.3,1.2-0.4c-0.3-0.3-0.6-0.7-0.8-1.2C32,19.1,31.9,18.7,31.8,18.3"/>
			<path clip-path="url(#SVGID_4_)" fill="#FFFFFF" d="M16.6,3.4l-0.2,0c-0.4,1.2-0.6,2.2-1,3.4c-0.4,1.3-0.9,2.5-1.3,3.7
				c-0.4,1.2-0.9,2.4-1.3,3.5c-0.4,1.1-0.8,2.2-1.2,3.1c-0.4-1-0.8-2-1.3-3.1C9.9,13,9.4,11.8,9,10.6C8.6,9.4,8.1,8.2,7.7,6.9
				C7.4,5.9,6.4,3.2,5.8,1.7L2,1c1.1,3.2,3.1,8.5,4.2,11.4c1.2,3.1,2.5,6,3.7,8.8h3.1c1.3-2.8,2.5-5.7,3.7-8.8
				c1.1-2.7,2.1-5.7,3-8.4L16.6,3.4z"/>
			<polygon clip-path="url(#SVGID_4_)" fill="#FFFFFF" points="45.4,1.8 45.4,21.1 48.4,21.1 48.4,1.3 			"/>
			<path clip-path="url(#SVGID_4_)" fill="#F58623" d="M57.8,15.3c-0.3-0.3-0.7-0.5-1.2-0.8c-0.5-0.2-1-0.4-1.6-0.7
				c-0.5-0.2-0.9-0.3-1.2-0.5c-0.3-0.2-0.6-0.3-0.9-0.5c-0.2-0.2-0.4-0.4-0.5-0.6c-0.1-0.2-0.2-0.5-0.2-0.8c0-0.6,0.3-1.1,0.8-1.3
				c0.5-0.3,1.1-0.4,1.8-0.4c0.8,0,1.4,0.1,1.9,0.2c0.4,0.1,0.8,0.2,1,0.3l0.3-1.6c-0.1,0-0.3-0.1-0.4-0.1c-0.2-0.1-0.5-0.1-0.8-0.2
				c-0.3-0.1-0.6-0.1-1-0.1c-0.4,0-0.7-0.1-1.1-0.1c-1.4,0-2.5,0.3-3.3,1c-0.8,0.6-1.2,1.5-1.2,2.6c0,0.5,0.1,1,0.3,1.4
				c0.2,0.4,0.4,0.7,0.8,1c0.3,0.3,0.7,0.5,1.1,0.7c0.4,0.2,0.9,0.4,1.4,0.6c1,0.4,1.8,0.8,2.2,1.1c0.5,0.4,0.7,0.9,0.7,1.5
				c0,0.6-0.3,1.1-0.8,1.3c-0.5,0.3-1.2,0.4-2.2,0.4c-1,0-1.8-0.1-2.4-0.3c-0.5-0.2-0.8-0.3-1.1-0.4l-0.4,1.7
				c0.2,0.1,0.6,0.2,1.2,0.4c0.6,0.2,1.5,0.3,2.6,0.3c1.6,0,2.8-0.3,3.7-0.9c0.8-0.6,1.3-1.4,1.3-2.6c0-0.6-0.1-1.1-0.3-1.5
				C58.4,16,58.1,15.6,57.8,15.3"/>
			<path clip-path="url(#SVGID_4_)" fill="#F58623" d="M69.5,9.9c-0.5-0.6-1.1-1-1.9-1.3c-0.7-0.3-1.5-0.5-2.4-0.5
				c-0.8,0-1.6,0.2-2.4,0.5c-0.7,0.3-1.3,0.8-1.9,1.3c-0.5,0.6-0.9,1.3-1.2,2.1c-0.3,0.8-0.4,1.7-0.4,2.7c0,1,0.1,1.9,0.4,2.7
				c0.3,0.8,0.7,1.5,1.2,2.1c0.5,0.6,1.1,1,1.9,1.3c0.7,0.3,1.5,0.5,2.4,0.5c0.8,0,1.6-0.2,2.4-0.5c0.7-0.3,1.3-0.8,1.9-1.3
				c0.5-0.6,0.9-1.3,1.2-2.1c0.3-0.8,0.4-1.7,0.4-2.7c0-1-0.1-1.9-0.4-2.7C70.5,11.2,70.1,10.5,69.5,9.9 M68.1,18.3
				c-0.7,0.9-1.6,1.3-2.8,1.3c-1.2,0-2.1-0.4-2.8-1.3c-0.7-0.9-1-2.1-1-3.5s0.3-2.7,1-3.5c0.7-0.9,1.6-1.3,2.8-1.3
				c1.2,0,2.1,0.4,2.8,1.3c0.7,0.9,1,2.1,1,3.5S68.8,17.4,68.1,18.3"/>
			<path clip-path="url(#SVGID_4_)" fill="#F58623" d="M78.9,19.5c-0.3,0-0.5,0-0.8,0c-1.2,0-2.1-0.4-2.6-1.1
				c-0.5-0.7-0.8-1.9-0.8-3.5V8.5h-2v7.1c0,0.9,0.1,1.6,0.3,2.3c0.2,0.7,0.5,1.3,0.9,1.8c0.4,0.5,0.9,0.9,1.6,1.2
				c0.7,0.3,1.5,0.4,2.4,0.4c1.1,0,2.1-0.1,3-0.2c0.8-0.1,1.5-0.3,2-0.4V8.5h-2v10.8l-0.1,0c-0.1,0-0.2,0.1-0.4,0.1
				c-0.2,0-0.4,0-0.6,0.1C79.4,19.5,79.2,19.5,78.9,19.5"/>
			<path clip-path="url(#SVGID_4_)" fill="#F58623" d="M91.9,8.4c-0.2,0-0.4-0.1-0.7-0.1c-0.2,0-0.5-0.1-0.7-0.1c-0.2,0-0.5,0-0.7,0
				c-1,0-1.9,0.1-2.7,0.3c-0.7,0.2-1.4,0.3-1.9,0.5v12h2V10.2l0.1,0c0.1,0,0.4-0.1,0.8-0.2c0.4-0.1,0.9-0.1,1.3-0.1
				c0.7,0,1.2,0,1.7,0.1c0.3,0.1,0.6,0.1,0.7,0.2l0.3-1.7C92.1,8.5,92,8.5,91.9,8.4"/>
			<path clip-path="url(#SVGID_4_)" fill="#F58623" d="M100.3,19.4c-0.5,0.1-1.1,0.2-1.7,0.2c-0.8,0-1.4-0.1-2-0.3
				c-0.5-0.2-1-0.6-1.4-1c-0.4-0.4-0.6-0.9-0.8-1.5c-0.2-0.6-0.2-1.2-0.2-1.9c0-1.6,0.4-2.8,1.1-3.6c0.7-0.8,1.7-1.3,3.1-1.3
				c0.5,0,1,0.1,1.5,0.2c0.4,0.1,0.7,0.2,1.1,0.3l0.4-1.6c-0.5-0.2-1-0.3-1.5-0.4c-0.6-0.1-1.1-0.1-1.7-0.1c-0.9,0-1.8,0.2-2.5,0.5
				C94.9,9,94.3,9.4,93.8,10c-0.5,0.6-0.9,1.3-1.2,2.1c-0.3,0.8-0.4,1.7-0.4,2.7c0,1,0.1,1.9,0.4,2.7c0.3,0.8,0.6,1.5,1.2,2.1
				c0.5,0.6,1.2,1,1.9,1.3c1,0.4,2.2,0.6,3.7,0.4c0.3,0,0.7-0.1,1-0.1c0.3-0.1,0.6-0.1,0.8-0.2c0.2-0.1,0.3-0.1,0.4-0.2l-0.3-1.6
				C101,19.2,100.7,19.3,100.3,19.4"/>
			<path clip-path="url(#SVGID_4_)" fill="#F58623" d="M107.5,8.1c-0.7,0-1.4,0.1-2.1,0.4c-0.7,0.3-1.3,0.7-1.8,1.2
				c-0.5,0.5-1,1.2-1.3,2.1c-0.3,0.8-0.5,1.8-0.5,2.9c0,1,0.1,1.8,0.4,2.6c0.2,0.8,0.6,1.5,1.1,2.1c0.5,0.6,1.2,1,2,1.4
				c0.8,0.3,1.8,0.5,2.8,0.5c0.9,0,1.7-0.1,2.4-0.2c0.6-0.1,1-0.3,1.3-0.4l-0.3-1.6c-0.3,0.1-0.6,0.2-1.1,0.3
				c-0.6,0.1-1.3,0.2-2.1,0.2c-1.5,0-2.6-0.4-3.3-1.1c-0.7-0.7-1.1-1.8-1.2-3.1l0-0.2h8.8c0-0.1,0-0.2,0-0.3v-0.4
				c0-2.2-0.5-3.8-1.3-4.8C110.5,8.7,109.2,8.1,107.5,8.1 M110.6,13.6h-6.7l0-0.2c0.1-0.5,0.2-0.9,0.3-1.3c0.2-0.4,0.4-0.8,0.7-1.2
				c0.3-0.3,0.7-0.6,1.1-0.8c0.4-0.2,0.9-0.3,1.5-0.3c1,0,1.8,0.4,2.3,1.1c0.6,0.7,0.8,1.6,0.8,2.7L110.6,13.6z"/>
			<polygon clip-path="url(#SVGID_4_)" fill="#F58623" points="114.5,8.1 114.5,8.4 113.8,8.4 113.8,10.3 113.5,10.3 113.5,8.4 
				112.8,8.4 112.8,8.1 			"/>
			<path clip-path="url(#SVGID_4_)" fill="#F58623" d="M115.8,10c0-0.1,0-0.1-0.1-0.2c0-0.1-0.1-0.2-0.1-0.3c0-0.1-0.1-0.2-0.1-0.3
				c0-0.1-0.1-0.2-0.1-0.3c0-0.1-0.1-0.2-0.1-0.2c0-0.1-0.1-0.1-0.1-0.2c0,0.3,0,0.5-0.1,0.8c0,0.3,0,0.6,0,0.9h-0.3
				c0-0.2,0-0.4,0-0.6c0-0.2,0-0.4,0-0.6c0-0.2,0-0.4,0-0.6c0-0.2,0-0.3,0.1-0.5h0.3c0.1,0.1,0.1,0.2,0.2,0.3
				c0.1,0.1,0.1,0.3,0.2,0.4c0.1,0.1,0.1,0.3,0.2,0.4c0.1,0.1,0.1,0.3,0.2,0.4c0.1-0.1,0.1-0.2,0.2-0.4c0.1-0.1,0.1-0.3,0.2-0.4
				c0.1-0.1,0.1-0.3,0.2-0.4c0.1-0.1,0.1-0.2,0.2-0.3h0.3c0.1,0.7,0.1,1.4,0.2,2.2h-0.3c0-0.3,0-0.6,0-0.9c0-0.3,0-0.6-0.1-0.8
				c0,0,0,0.1-0.1,0.2c0,0.1-0.1,0.1-0.1,0.2c0,0.1-0.1,0.2-0.1,0.3c0,0.1-0.1,0.2-0.1,0.3c0,0.1-0.1,0.2-0.1,0.3
				c0,0.1-0.1,0.1-0.1,0.2H115.8z"/>
		</g>
	</g>
</g>
<line fill="none" stroke="#AEAEBC" stroke-miterlimit="10" x1="128.5" y1="3" x2="128.5" y2="23"/>
<g>
	<path fill="#AEAEBC" d="M154.8,20.4c-0.3-0.7-0.5-1.3-0.7-2c-0.2-0.6-0.4-1.2-0.6-1.8h-6.8c-0.2,0.6-0.5,1.2-0.7,1.8
		c-0.2,0.6-0.5,1.3-0.7,2h-1.4c0.5-1.4,1-2.8,1.5-4c0.5-1.2,0.9-2.4,1.4-3.5c0.5-1.1,0.9-2.2,1.3-3.2c0.4-1,0.9-2.1,1.4-3.1h1.2
		c0.5,1,1,2.1,1.4,3.1c0.4,1,0.9,2.1,1.3,3.2c0.5,1.1,0.9,2.3,1.4,3.5s1,2.6,1.5,4H154.8z M150,8.1c-0.5,1.2-1,2.3-1.5,3.5
		s-1,2.5-1.5,3.8h5.9c-0.5-1.4-1-2.7-1.5-3.8C151,10.4,150.5,9.3,150,8.1z"/>
	<path fill="#AEAEBC" d="M162.2,20.6c-0.8,0-1.5-0.1-2.1-0.4s-1.1-0.6-1.5-1.1c-0.4-0.5-0.7-1-0.9-1.7s-0.3-1.4-0.3-2.2
		c0-0.8,0.1-1.6,0.3-2.2c0.2-0.7,0.5-1.2,1-1.7c0.4-0.5,0.9-0.9,1.5-1.1c0.6-0.3,1.2-0.4,2-0.4c0.6,0,1.1,0,1.6,0.1
		c0.5,0.1,0.9,0.2,1.1,0.4l-0.3,1.1c-0.3-0.1-0.6-0.2-0.9-0.3c-0.3-0.1-0.8-0.1-1.3-0.1c-1.1,0-2,0.4-2.6,1.1
		c-0.6,0.7-0.9,1.8-0.9,3.2c0,0.6,0.1,1.2,0.2,1.7c0.1,0.5,0.4,1,0.7,1.3c0.3,0.4,0.7,0.7,1.2,0.9c0.5,0.2,1,0.3,1.7,0.3
		c0.6,0,1-0.1,1.4-0.2c0.4-0.1,0.7-0.2,0.8-0.3l0.3,1.1c-0.2,0.1-0.6,0.3-1.1,0.4C163.3,20.6,162.7,20.6,162.2,20.6z"/>
	<path fill="#AEAEBC" d="M171.1,20.6c-0.8,0-1.5-0.1-2.1-0.4s-1.1-0.6-1.5-1.1c-0.4-0.5-0.7-1-0.9-1.7s-0.3-1.4-0.3-2.2
		c0-0.8,0.1-1.6,0.3-2.2c0.2-0.7,0.5-1.2,1-1.7c0.4-0.5,0.9-0.9,1.5-1.1c0.6-0.3,1.2-0.4,2-0.4c0.6,0,1.1,0,1.6,0.1
		c0.5,0.1,0.9,0.2,1.1,0.4l-0.3,1.1c-0.3-0.1-0.6-0.2-0.9-0.3c-0.3-0.1-0.8-0.1-1.3-0.1c-1.1,0-2,0.4-2.6,1.1
		c-0.6,0.7-0.9,1.8-0.9,3.2c0,0.6,0.1,1.2,0.2,1.7c0.1,0.5,0.4,1,0.7,1.3c0.3,0.4,0.7,0.7,1.2,0.9c0.5,0.2,1,0.3,1.7,0.3
		c0.6,0,1-0.1,1.4-0.2c0.4-0.1,0.7-0.2,0.8-0.3l0.3,1.1c-0.2,0.1-0.6,0.3-1.1,0.4C172.2,20.6,171.6,20.6,171.1,20.6z"/>
	<path fill="#AEAEBC" d="M184.5,15.3c0,0.8-0.1,1.6-0.3,2.2c-0.2,0.7-0.6,1.2-1,1.7s-0.9,0.8-1.5,1.1c-0.6,0.3-1.2,0.4-1.9,0.4
		c-0.7,0-1.3-0.1-1.9-0.4c-0.6-0.3-1.1-0.6-1.5-1.1s-0.7-1-1-1.7c-0.2-0.7-0.4-1.4-0.4-2.2c0-0.8,0.1-1.6,0.4-2.2s0.6-1.2,1-1.7
		s0.9-0.8,1.5-1.1c0.6-0.3,1.2-0.4,1.9-0.4c0.7,0,1.3,0.1,1.9,0.4c0.6,0.3,1.1,0.6,1.5,1.1s0.7,1,1,1.7
		C184.4,13.7,184.5,14.4,184.5,15.3z M183.1,15.3c0-1.3-0.3-2.3-0.9-3.1c-0.6-0.8-1.4-1.1-2.4-1.1c-1,0-1.8,0.4-2.4,1.1
		c-0.6,0.8-0.9,1.8-0.9,3.1c0,1.3,0.3,2.3,0.9,3.1c0.6,0.8,1.4,1.1,2.4,1.1c1,0,1.8-0.4,2.4-1.1C182.8,17.6,183.1,16.6,183.1,15.3z"
		/>
	<path fill="#AEAEBC" d="M195,20.1c-0.4,0.1-0.9,0.2-1.6,0.4s-1.5,0.2-2.4,0.2c-0.8,0-1.4-0.1-1.9-0.3c-0.5-0.2-0.9-0.5-1.3-1
		s-0.5-0.9-0.7-1.5c-0.1-0.6-0.2-1.2-0.2-1.9v-5.8h1.3v5.4c0,0.7,0.1,1.4,0.2,1.9c0.1,0.5,0.3,0.9,0.5,1.2s0.5,0.5,0.9,0.7
		c0.4,0.1,0.8,0.2,1.4,0.2c0.6,0,1.1,0,1.6-0.1c0.5-0.1,0.7-0.1,0.9-0.2v-9.1h1.3V20.1z"/>
	<path fill="#AEAEBC" d="M198.1,10.4c0.4-0.1,0.9-0.2,1.6-0.4s1.5-0.2,2.4-0.2c0.8,0,1.4,0.1,2,0.3c0.5,0.2,0.9,0.6,1.3,1
		c0.3,0.4,0.5,0.9,0.7,1.5c0.1,0.6,0.2,1.2,0.2,1.9v5.8h-1.3v-5.4c0-0.7-0.1-1.4-0.2-1.9s-0.3-0.9-0.5-1.2c-0.2-0.3-0.5-0.5-0.9-0.7
		s-0.9-0.2-1.4-0.2c-0.6,0-1.1,0-1.6,0.1c-0.4,0.1-0.7,0.1-0.9,0.2v9.1h-1.3V10.4z"/>
	<path fill="#AEAEBC" d="M210.4,10.1h4.1v1.1h-4.1v5.5c0,0.6,0,1.1,0.1,1.4c0.1,0.4,0.2,0.6,0.4,0.8c0.2,0.2,0.4,0.3,0.7,0.4
		c0.3,0.1,0.6,0.1,0.9,0.1c0.5,0,1-0.1,1.3-0.2c0.3-0.1,0.6-0.2,0.8-0.3L215,20c-0.2,0.1-0.5,0.3-1,0.4s-1,0.2-1.5,0.2
		c-0.6,0-1.2-0.1-1.6-0.2c-0.4-0.2-0.8-0.4-1-0.8c-0.3-0.3-0.4-0.8-0.5-1.3s-0.2-1.1-0.2-1.8V7l1.3-0.2V10.1z"/>
	<path fill="#AEAEBC" d="M226.7,20.7c-0.9,0-1.7-0.2-2.5-0.5c-0.8-0.3-1.4-0.8-2-1.4c-0.6-0.6-1-1.4-1.3-2.3
		c-0.3-0.9-0.5-1.9-0.5-3.1c0-1.2,0.2-2.2,0.5-3.1c0.4-0.9,0.8-1.7,1.4-2.3s1.3-1.1,2-1.4c0.8-0.3,1.6-0.5,2.4-0.5
		c0.5,0,1,0,1.4,0.1c0.4,0.1,0.8,0.1,1.1,0.2c0.3,0.1,0.6,0.2,0.8,0.3c0.2,0.1,0.4,0.2,0.5,0.3l-0.4,1.2c-0.3-0.2-0.8-0.4-1.3-0.6
		c-0.5-0.2-1.1-0.3-1.9-0.3c-0.9,0-1.6,0.1-2.3,0.4c-0.6,0.3-1.2,0.7-1.6,1.2s-0.8,1.2-1,1.9c-0.2,0.7-0.3,1.5-0.3,2.4
		c0,0.9,0.1,1.8,0.3,2.5c0.2,0.7,0.5,1.4,1,1.9c0.4,0.5,0.9,0.9,1.6,1.2s1.3,0.4,2.1,0.4c0.9,0,1.6-0.1,2.2-0.2
		c0.6-0.2,1-0.3,1.4-0.5l0.4,1.2c-0.1,0.1-0.3,0.1-0.5,0.2s-0.5,0.2-0.9,0.3c-0.3,0.1-0.7,0.2-1.2,0.2S227.3,20.7,226.7,20.7z"/>
	<path fill="#AEAEBC" d="M232.2,15.2c0-0.9,0.1-1.7,0.4-2.4s0.6-1.2,1-1.7c0.4-0.5,0.9-0.8,1.4-1s1.1-0.3,1.7-0.3
		c1.3,0,2.3,0.4,3,1.2c0.8,0.8,1.1,2.1,1.1,3.8c0,0.1,0,0.2,0,0.3c0,0.1,0,0.2,0,0.3h-7.3c0,1.3,0.4,2.2,0.9,2.9
		c0.6,0.7,1.5,1,2.8,1c0.7,0,1.3-0.1,1.7-0.2c0.4-0.1,0.7-0.2,0.9-0.3l0.2,1.1c-0.2,0.1-0.5,0.2-1,0.4c-0.5,0.1-1.1,0.2-1.8,0.2
		c-0.9,0-1.7-0.1-2.3-0.4c-0.6-0.3-1.2-0.6-1.6-1.1c-0.4-0.5-0.7-1-0.9-1.7S232.2,16,232.2,15.2z M239.5,14.4c0-1.1-0.3-1.9-0.8-2.5
		c-0.5-0.6-1.2-0.9-2-0.9c-0.5,0-0.9,0.1-1.2,0.3c-0.4,0.2-0.7,0.4-1,0.7c-0.3,0.3-0.5,0.7-0.6,1.1s-0.2,0.8-0.3,1.3H239.5z"/>
	<path fill="#AEAEBC" d="M243.4,10.4c0.4-0.1,0.9-0.2,1.6-0.4s1.5-0.2,2.4-0.2c0.8,0,1.4,0.1,2,0.3c0.5,0.2,0.9,0.6,1.3,1
		c0.3,0.4,0.5,0.9,0.7,1.5c0.1,0.6,0.2,1.2,0.2,1.9v5.8h-1.3v-5.4c0-0.7-0.1-1.4-0.2-1.9s-0.3-0.9-0.5-1.2c-0.2-0.3-0.5-0.5-0.9-0.7
		s-0.9-0.2-1.4-0.2c-0.6,0-1.1,0-1.6,0.1c-0.4,0.1-0.7,0.1-0.9,0.2v9.1h-1.3V10.4z"/>
	<path fill="#AEAEBC" d="M255.7,10.1h4.1v1.1h-4.1v5.5c0,0.6,0,1.1,0.1,1.4c0.1,0.4,0.2,0.6,0.4,0.8c0.2,0.2,0.4,0.3,0.7,0.4
		c0.3,0.1,0.6,0.1,0.9,0.1c0.5,0,1-0.1,1.3-0.2c0.3-0.1,0.6-0.2,0.8-0.3l0.3,1.1c-0.2,0.1-0.5,0.3-1,0.4s-1,0.2-1.5,0.2
		c-0.6,0-1.2-0.1-1.6-0.2c-0.4-0.2-0.8-0.4-1-0.8c-0.3-0.3-0.4-0.8-0.5-1.3s-0.2-1.1-0.2-1.8V7l1.3-0.2V10.1z"/>
	<path fill="#AEAEBC" d="M261.3,15.2c0-0.9,0.1-1.7,0.4-2.4s0.6-1.2,1-1.7c0.4-0.5,0.9-0.8,1.4-1s1.1-0.3,1.7-0.3
		c1.3,0,2.3,0.4,3,1.2c0.8,0.8,1.1,2.1,1.1,3.8c0,0.1,0,0.2,0,0.3c0,0.1,0,0.2,0,0.3h-7.3c0,1.3,0.4,2.2,0.9,2.9
		c0.6,0.7,1.5,1,2.8,1c0.7,0,1.3-0.1,1.7-0.2c0.4-0.1,0.7-0.2,0.9-0.3l0.2,1.1c-0.2,0.1-0.5,0.2-1,0.4c-0.5,0.1-1.1,0.2-1.8,0.2
		c-0.9,0-1.7-0.1-2.3-0.4c-0.6-0.3-1.2-0.6-1.6-1.1c-0.4-0.5-0.7-1-0.9-1.7S261.3,16,261.3,15.2z M268.7,14.4c0-1.1-0.3-1.9-0.8-2.5
		c-0.5-0.6-1.2-0.9-2-0.9c-0.5,0-0.9,0.1-1.2,0.3c-0.4,0.2-0.7,0.4-1,0.7c-0.3,0.3-0.5,0.7-0.6,1.1s-0.2,0.8-0.3,1.3H268.7z"/>
	<path fill="#AEAEBC" d="M276.1,9.9c0.4,0,0.8,0,1.2,0.1c0.4,0.1,0.6,0.1,0.8,0.2l-0.3,1.1c-0.1-0.1-0.3-0.1-0.7-0.2
		c-0.3-0.1-0.8-0.1-1.3-0.1c-0.6,0-1,0-1.3,0.1c-0.3,0.1-0.6,0.1-0.7,0.2v9.1h-1.3v-9.9c0.3-0.1,0.8-0.3,1.4-0.5
		C274.6,10,275.3,9.9,276.1,9.9z"/>
</g>
<g>
	<g>
		<defs>
			<rect id="SVGID_9_" x="-8" y="-46.7" width="132.6" height="46.7"/>
		</defs>
		<clipPath id="SVGID_6_">
			<use xlink:href="#SVGID_9_"  overflow="visible"/>
		</clipPath>
		<g clip-path="url(#SVGID_6_)">
			<defs>
				<rect id="SVGID_11_" x="-8" y="-46.7" width="132.6" height="46.7"/>
			</defs>
			<clipPath id="SVGID_8_">
				<use xlink:href="#SVGID_11_"  overflow="visible"/>
			</clipPath>
		</g>
	</g>
</g>
<g>
	<g>
		<defs>
			<rect id="SVGID_13_" x="-8" y="-46.7" width="132.6" height="46.7"/>
		</defs>
		<clipPath id="SVGID_10_">
			<use xlink:href="#SVGID_13_"  overflow="visible"/>
		</clipPath>
		<g clip-path="url(#SVGID_10_)">
			<defs>
				<rect id="SVGID_15_" x="-8" y="-46.7" width="132.6" height="46.7"/>
			</defs>
			<clipPath id="SVGID_12_">
				<use xlink:href="#SVGID_15_"  overflow="visible"/>
			</clipPath>
		</g>
	</g>
</g>
</svg>
