<?xml version="1.0" encoding="UTF-8" standalone="no"?>
<svg width="18px" height="21px" viewBox="0 0 18 21" version="1.1" xmlns="http://www.w3.org/2000/svg" xmlns:xlink="http://www.w3.org/1999/xlink" xmlns:sketch="http://www.bohemiancoding.com/sketch/ns">
    <!-- Generator: Sketch 3.3.3 (12081) - http://www.bohemiancoding.com/sketch -->
    <title>Imported Layers</title>
    <desc>Created with Sketch.</desc>
    <defs></defs>
    <g id="Page-1" stroke="none" stroke-width="1" fill="none" fill-rule="evenodd" sketch:type="MSPage">
        <g id="Desktop-Copy-3" sketch:type="MSArtboardGroup" transform="translate(-22.000000, -345.000000)" fill="#40404C">
            <g id="Resources-+-Imported-Layers" sketch:type="MSLayerGroup" transform="translate(22.000000, 343.000000)">
                <g id="Imported-Layers" transform="translate(0.000000, 2.000000)" sketch:type="MSShapeGroup">
                    <path d="M13.9090909,4.09090909 L13.9090909,0 L0,0 L0,16.3636364 L4.09090909,16.3636364 L4.09090909,20.4545455 L18,20.4545455 L18,4.09090909 L13.9090909,4.09090909 L13.9090909,4.09090909 Z M2.45454545,2.45454545 L11.4545455,2.45454545 L11.4545455,13.9090909 L2.45454545,13.9090909 L2.45454545,2.45454545 Z M15.5454545,18 L6.54545455,18 L6.54545455,16.3636364 L13.9090909,16.3636364 L13.9090909,6.54545455 L15.5454545,6.54545455 L15.5454545,18 L15.5454545,18 Z" id="Fill-1"></path>
                    <path d="M4.09090909,4.90909091 L9.81818182,4.90909091 L9.81818182,6.54545455 L4.09090909,6.54545455 L4.09090909,4.90909091 Z" id="Fill-2"></path>
                    <path d="M4.09090909,7.36363636 L9.81818182,7.36363636 L9.81818182,9 L4.09090909,9 L4.09090909,7.36363636 Z" id="Fill-3"></path>
                    <path d="M4.09090909,9.81818182 L9.81818182,9.81818182 L9.81818182,11.4545455 L4.09090909,11.4545455 L4.09090909,9.81818182 Z" id="Fill-4"></path>
                </g>
            </g>
        </g>
    </g>
</svg>