<?xml version="1.0" encoding="utf-8"?>
<!-- Generator: Adobe Illustrator 19.1.0, SVG Export Plug-In . SVG Version: 6.00 Build 0)  -->
<!DOCTYPE svg PUBLIC "-//W3C//DTD SVG 1.1//EN" "http://www.w3.org/Graphics/SVG/1.1/DTD/svg11.dtd">
<svg version="1.1" id="default" xmlns="http://www.w3.org/2000/svg" xmlns:xlink="http://www.w3.org/1999/xlink" x="0px" y="0px"
	 width="12.2px" height="14px" viewBox="0 0 12.2 14" enable-background="new 0 0 12.2 14" xml:space="preserve">
<path fill="#FFFFFF" d="M55,13V2H41v11h6v1h-3.2l0,0h8l0,0H49v-1H55z M43,4h10v6H43V4z"/>
<g>
	<g>
		<path fill="#FFFFFF" d="M53.4,2.4H40.8v13h12.6V2.4z M42.8,13.4v-9h8.6v9H42.8z"/>
		<rect x="44.8" y="6.4" fill="#FFFFFF" width="4.6" height="1.6"/>
		<rect x="44.8" y="9.6" fill="#FFFFFF" width="4.6" height="1.6"/>
	</g>
	<path fill="#FFFFFF" d="M52.5,7.6h3.1v10H46v-3.2l-2,0v5.2h13.6v-14h-5L52.5,7.6z"/>
</g>
<g>
	<g>
		<path fill="#FFFFFF" d="M9.9,0H0v11.7h9.9V0z M1.5,10.2V1.5h7v8.8H1.5z"/>
		<rect x="2.9" y="2.9" fill="#FFFFFF" width="4.1" height="1.2"/>
		<rect x="2.9" y="5.2" fill="#FFFFFF" width="4.1" height="1.2"/>
		<rect x="2.9" y="7.6" fill="#FFFFFF" width="4.1" height="1.2"/>
	</g>
	<path fill="#FFFFFF" d="M10.8,2.3l0,10.2h-7H2.3V14h9.9V2.3H10.8z"/>
</g>
<g>
	<g>
		<path fill="#FFFFFF" d="M17.8,24.1H7.9v11.7h9.9V24.1z M9.3,34.3v-8.7h7v8.7H9.3z"/>
		<rect x="10.8" y="27" fill="#FFFFFF" width="4.1" height="1.2"/>
		<rect x="10.8" y="29.4" fill="#FFFFFF" width="4.1" height="1.2"/>
		<rect x="10.8" y="31.7" fill="#FFFFFF" width="4.1" height="1.2"/>
	</g>
	<path fill="#FFFFFF" d="M16.4,27.9h2.2v8.8h-7v-1.3l-1.5,0v2.8h9.9V26.5h-3.6L16.4,27.9z"/>
</g>
</svg>
