<?xml version="1.0" encoding="utf-8"?>
<!-- Generator: Adobe Illustrator 18.0.0, SVG Export Plug-In . SVG Version: 6.00 Build 0)  -->
<!DOCTYPE svg PUBLIC "-//W3C//DTD SVG 1.1//EN" "http://www.w3.org/Graphics/SVG/1.1/DTD/svg11.dtd">
<svg version="1.1" id="hover" xmlns="http://www.w3.org/2000/svg" xmlns:xlink="http://www.w3.org/1999/xlink" x="0px" y="0px"
	 width="14px" height="14px" viewBox="0 0 14 14" enable-background="new 0 0 14 14" xml:space="preserve">
<g>
	<path fill="#B9B9D3" d="M13.8,8C13.9,8,14,7.8,14,7.7V6.3C14,6.2,13.9,6,13.8,6l-1.3-0.3c-0.1,0-0.3-0.2-0.3-0.3l-0.4-1
		c-0.1-0.1-0.1-0.3,0-0.4l0.7-1.1c0.1-0.1,0.1-0.3,0-0.4l-1-1c-0.1-0.1-0.3-0.1-0.4,0L10,2.2c-0.1,0.1-0.3,0.1-0.4,0l-1-0.4
		c-0.1,0-0.2-0.2-0.3-0.3L8,0.2C8,0.1,7.8,0,7.7,0H6.3C6.2,0,6,0.1,6,0.2L5.7,1.5c0,0.1-0.2,0.3-0.3,0.3l-1,0.4
		C4.3,2.3,4.1,2.3,4,2.2L2.9,1.5c-0.1-0.1-0.3-0.1-0.4,0l-1,1c-0.1,0.1-0.1,0.3,0,0.4L2.2,4c0.1,0.1,0.1,0.3,0,0.4l-0.4,1
		c0,0.1-0.2,0.2-0.3,0.3L0.2,6C0.1,6,0,6.2,0,6.3v1.4C0,7.8,0.1,8,0.2,8l1.3,0.3c0.1,0,0.3,0.2,0.3,0.3l0.4,1c0.1,0.1,0,0.3,0,0.4
		l-0.7,1.1c-0.1,0.1-0.1,0.3,0,0.4l1,1c0.1,0.1,0.3,0.1,0.4,0L4,11.8c0.1-0.1,0.3-0.1,0.4,0l1,0.4c0.1,0,0.2,0.2,0.3,0.3L6,13.8
		C6,13.9,6.2,14,6.3,14h1.4C7.8,14,8,13.9,8,13.8l0.3-1.3c0-0.1,0.2-0.3,0.3-0.3l1-0.4c0.1-0.1,0.3-0.1,0.4,0l1.1,0.7
		c0.1,0.1,0.3,0.1,0.4,0l1-1c0.1-0.1,0.1-0.3,0-0.4L11.8,10c-0.1-0.1-0.1-0.3,0-0.4l0.4-1c0-0.1,0.2-0.2,0.3-0.3L13.8,8z M7,10.7
		c-2.1,0-3.7-1.7-3.7-3.7S4.9,3.3,7,3.3s3.7,1.7,3.7,3.7S9.1,10.7,7,10.7z"/>
</g>
</svg>
