<?xml version="1.0" encoding="UTF-8" standalone="no"?>
<svg width="17px" height="18px" viewBox="0 0 17 18" version="1.1" xmlns="http://www.w3.org/2000/svg" xmlns:xlink="http://www.w3.org/1999/xlink" xmlns:sketch="http://www.bohemiancoding.com/sketch/ns">
    <!-- Generator: Sketch 3.3.3 (12081) - http://www.bohemiancoding.com/sketch -->
    <title>Imported Layers</title>
    <desc>Created with Sketch.</desc>
    <defs></defs>
    <g id="Page-1" stroke="none" stroke-width="1" fill="none" fill-rule="evenodd" sketch:type="MSPage">
        <g id="Desktop-Copy-3" sketch:type="MSArtboardGroup" transform="translate(-22.000000, -397.000000)" fill="#40404C">
            <path d="M39.0526316,398.749188 C39.0526316,398.180767 38.5789474,397.707083 38.0105263,397.707083 L31.5684211,397.707083 L22.2842105,406.991293 C21.9052632,407.370241 21.9052632,408.033398 22.2842105,408.412346 L28.2526316,414.380767 C28.6315789,414.759714 29.2947368,414.759714 29.6736842,414.380767 L38.9578947,405.096556 L38.9578947,398.749188 L39.0526316,398.749188 L39.0526316,398.749188 Z M34.1263158,402.538662 C33.4631579,401.875504 33.4631579,400.738662 34.1263158,400.075504 C34.7894737,399.412346 35.9263158,399.412346 36.5894737,400.075504 C37.2526316,400.738662 37.2526316,401.875504 36.5894737,402.538662 C35.9263158,403.296556 34.8842105,403.296556 34.1263158,402.538662 L34.1263158,402.538662 Z" id="Imported-Layers" sketch:type="MSShapeGroup"></path>
        </g>
    </g>
</svg>