<?xml version="1.0" encoding="utf-8"?>
<!-- Generator: Adobe Illustrator 18.0.0, SVG Export Plug-In . SVG Version: 6.00 Build 0)  -->
<!DOCTYPE svg PUBLIC "-//W3C//DTD SVG 1.1//EN" "http://www.w3.org/Graphics/SVG/1.1/DTD/svg11.dtd">
<svg version="1.1" id="default" xmlns="http://www.w3.org/2000/svg" xmlns:xlink="http://www.w3.org/1999/xlink" x="0px" y="0px"
	 width="20px" height="12.8px" viewBox="0 0 20 12.8" enable-background="new 0 0 20 12.8" xml:space="preserve">
<g>
	<g>
		<rect x="10.3" y="1.5" fill="#FFFFFF" width="9.7" height="1.6"/>
		<rect x="13.5" y="5.6" fill="#FFFFFF" width="6.5" height="1.6"/>
		<rect x="13.5" y="9.6" fill="#FFFFFF" width="6.5" height="1.6"/>
	</g>
	<g>
		<g>
			<path fill="#FFFFFF" d="M8.6,8.2C8.4,8.1,7.7,7.6,7.4,7.9C7,8.3,6,9.1,5.1,9.1v0v0c-0.9,0-1.9-0.8-2.3-1.2
				c-0.3-0.3-1,0.2-1.2,0.3C1.2,8.5,1,8.7,0.6,9.2C0.4,9.4,0.2,9.8,0,10.1c1.1,1.6,3,2.7,5.1,2.7c2.1,0,4-1.1,5.1-2.7
				c-0.2-0.3-0.4-0.6-0.6-0.9C9.2,8.7,9.1,8.5,8.6,8.2z"/>
		</g>
		<path fill="#FFFFFF" d="M8,3.2C8,5,6.6,6.8,5.1,6.8S2.2,5,2.2,3.2S3.5,0,5.1,0S8,1.4,8,3.2z"/>
	</g>
</g>
</svg>
