<?xml version="1.0" encoding="UTF-8" standalone="no"?>
<svg width="24px" height="15px" viewBox="0 0 24 15" version="1.1" xmlns="http://www.w3.org/2000/svg" xmlns:xlink="http://www.w3.org/1999/xlink" xmlns:sketch="http://www.bohemiancoding.com/sketch/ns">
    <!-- Generator: Sketch 3.3.3 (12081) - http://www.bohemiancoding.com/sketch -->
    <title>Imported Layers</title>
    <desc>Created with Sketch.</desc>
    <defs></defs>
    <g id="Page-1" stroke="none" stroke-width="1" fill="none" fill-rule="evenodd" sketch:type="MSPage">
        <g id="Desktop-Copy-3" sketch:type="MSArtboardGroup" transform="translate(-22.000000, -252.000000)" fill="#40404C">
            <g id="User-Info-+-Imported-Layers" sketch:type="MSLayerGroup" transform="translate(22.000000, 245.000000)">
                <g id="Imported-Layers" transform="translate(0.000000, 7.000000)" sketch:type="MSShapeGroup">
                    <path d="M12.3692308,1.84615385 L23.4461538,1.84615385 L23.4461538,3.69230769 L12.3692308,3.69230769 L12.3692308,1.84615385 Z" id="Fill-1"></path>
                    <path d="M16.0615385,6.46153846 L23.4461538,6.46153846 L23.4461538,8.30769231 L16.0615385,8.30769231 L16.0615385,6.46153846 Z" id="Fill-2"></path>
                    <path d="M16.0615385,11.0769231 L23.4461538,11.0769231 L23.4461538,12.9230769 L16.0615385,12.9230769 L16.0615385,11.0769231 Z" id="Fill-3"></path>
                    <path d="M10.4307692,9.50769231 C10.1538462,9.32307692 9.41538462,8.86153846 9.13846154,9.13846154 C8.67692308,9.6 7.56923077,10.5230769 6.55384615,10.5230769 C5.53846154,10.5230769 4.43076923,9.6 3.96923077,9.13846154 C3.69230769,8.86153846 2.86153846,9.32307692 2.67692308,9.50769231 C2.12307692,9.87692308 1.93846154,10.0615385 1.38461538,10.6153846 C1.10769231,10.8923077 0.923076923,11.2615385 0.738461538,11.6307692 C2.03076923,13.4769231 4.15384615,14.6769231 6.55384615,14.6769231 C8.95384615,14.6769231 11.0769231,13.4769231 12.3692308,11.6307692 C12.1846154,11.2615385 12,10.8923077 11.7230769,10.6153846 C11.2615385,9.96923077 11.0769231,9.78461538 10.4307692,9.50769231" id="Fill-4"></path>
                    <path d="M9.87692308,3.78461538 C9.87692308,5.81538462 8.21538462,7.93846154 6.55384615,7.93846154 C4.89230769,7.93846154 3.23076923,5.81538462 3.23076923,3.78461538 C3.23076923,1.75384615 4.70769231,0.184615385 6.55384615,0.184615385 C8.4,0.184615385 9.87692308,1.75384615 9.87692308,3.78461538" id="Fill-5"></path>
                </g>
            </g>
        </g>
    </g>
</svg>