<?xml version="1.0" encoding="utf-8"?>
<!-- Generator: Adobe Illustrator 18.0.0, SVG Export Plug-In . SVG Version: 6.00 Build 0)  -->
<!DOCTYPE svg PUBLIC "-//W3C//DTD SVG 1.1//EN" "http://www.w3.org/Graphics/SVG/1.1/DTD/svg11.dtd">
<svg version="1.1" id="Layer_1" xmlns="http://www.w3.org/2000/svg" xmlns:xlink="http://www.w3.org/1999/xlink" x="0px" y="0px"
	 width="94px" height="16.6px" viewBox="0 0 94 16.6" enable-background="new 0 0 94 16.6" xml:space="preserve">
<g>
	<g>
		<rect x="14.4" y="5.3" fill="#24386E" width="2.5" height="11.1"/>
		<g>
			<g>
				<path fill="#24386E" d="M33.1,6.3c-0.3-0.4-0.8-0.7-1.4-0.9c-0.6-0.2-1.2-0.3-2-0.3c-0.7,0-1.3,0.1-1.9,0.2
					c-0.6,0.1-1,0.2-1.3,0.3l-0.2,0.1l0.3,2.2L27,7.7c0.2-0.1,0.5-0.2,1-0.3c0.4-0.1,1-0.1,1.6-0.1c0.4,0,0.8,0.1,1.1,0.2
					c0.3,0.1,0.5,0.3,0.6,0.5c0.1,0.2,0.3,0.4,0.3,0.7c0.1,0.3,0.1,0.6,0.1,0.9v0.2c-0.1,0-0.3,0-0.4-0.1c-0.2,0-0.4-0.1-0.6-0.1
					c-0.9-0.1-1.6,0-2.4,0.2c-0.6,0.1-1.1,0.3-1.5,0.6c-0.4,0.3-0.8,0.7-1.1,1.1c-0.3,0.5-0.4,1-0.4,1.6c0,0.6,0.1,1.2,0.3,1.7
					c0.2,0.5,0.5,0.9,0.9,1.2c0.4,0.3,0.9,0.5,1.4,0.6c0.5,0.1,1.1,0.2,1.7,0.2c0.4,0,0.9,0,1.3-0.1c0.4,0,0.8-0.1,1.2-0.1
					c0.4,0,0.7-0.1,1-0.1l0.9-0.2V9.4c0-0.6-0.1-1.2-0.2-1.7C33.7,7.1,33.5,6.7,33.1,6.3z M31.6,11.7v2.7c-0.2,0-0.4,0-0.6,0.1
					c-0.3,0-0.7,0-1.2,0c-0.7,0-1.2-0.1-1.6-0.3c-0.3-0.2-0.5-0.6-0.5-1.1c0-0.3,0.1-0.5,0.2-0.7c0.1-0.2,0.3-0.3,0.6-0.4
					c0.2-0.1,0.5-0.2,0.8-0.2c0.3,0,0.6-0.1,0.9-0.1c0.4,0,0.8,0,1.1,0.1C31.4,11.6,31.5,11.7,31.6,11.7z"/>
			</g>
		</g>
		<path fill="#F58623" d="M45.6,11.7c-0.3-0.2-0.6-0.4-1-0.6c-0.4-0.2-0.8-0.4-1.3-0.6c-0.4-0.1-0.7-0.3-1-0.4
			C42,10,41.8,9.9,41.6,9.7c-0.2-0.2-0.3-0.3-0.4-0.5C41,9,41,8.8,41,8.5c0-0.5,0.2-0.9,0.7-1.1c0.4-0.2,0.9-0.3,1.4-0.3
			c0.6,0,1.1,0.1,1.6,0.2c0.3,0.1,0.6,0.2,0.8,0.3l0.3-1.3c-0.1,0-0.2-0.1-0.3-0.1C45.3,6.1,45,6,44.8,6c-0.3,0-0.5-0.1-0.8-0.1
			c-0.3,0-0.6,0-0.9,0c-1.1,0-2.1,0.3-2.7,0.8c-0.7,0.5-1,1.2-1,2.1c0,0.4,0.1,0.8,0.2,1.1c0.2,0.3,0.4,0.6,0.6,0.8
			c0.3,0.2,0.6,0.4,0.9,0.6c0.4,0.2,0.7,0.3,1.2,0.5c0.8,0.3,1.5,0.7,1.8,0.9c0.4,0.3,0.6,0.7,0.6,1.2c0,0.5-0.2,0.9-0.6,1.1
			c-0.4,0.2-1,0.3-1.8,0.3c-0.8,0-1.4-0.1-1.9-0.2c-0.4-0.1-0.7-0.2-0.9-0.3L39.2,16c0.2,0.1,0.5,0.2,1,0.3c0.5,0.2,1.2,0.2,2.1,0.2
			c1.3,0,2.3-0.2,3-0.7c0.7-0.5,1-1.2,1-2.1c0-0.5-0.1-0.9-0.2-1.2C46,12.2,45.8,11.9,45.6,11.7z"/>
		<path fill="#F58623" d="M55.2,7.3c-0.4-0.5-0.9-0.8-1.5-1.1c-0.6-0.3-1.2-0.4-1.9-0.4c-0.7,0-1.3,0.1-1.9,0.4
			c-0.6,0.3-1.1,0.6-1.5,1.1c-0.4,0.5-0.8,1-1,1.7c-0.2,0.7-0.4,1.4-0.4,2.2c0,0.8,0.1,1.6,0.4,2.2c0.2,0.7,0.6,1.2,1,1.7
			c0.4,0.5,0.9,0.8,1.5,1.1c0.6,0.3,1.2,0.4,1.9,0.4c0.7,0,1.3-0.1,1.9-0.4c0.6-0.3,1.1-0.6,1.5-1.1c0.4-0.5,0.8-1,1-1.7
			c0.2-0.7,0.4-1.4,0.4-2.2c0-0.8-0.1-1.5-0.4-2.2C55.9,8.3,55.6,7.7,55.2,7.3z M54,14.1c-0.6,0.7-1.3,1.1-2.3,1.1
			c-1,0-1.7-0.4-2.3-1.1c-0.5-0.7-0.8-1.7-0.8-2.9s0.3-2.2,0.8-2.9c0.6-0.7,1.3-1.1,2.3-1.1c1,0,1.7,0.4,2.3,1.1
			c0.5,0.7,0.8,1.7,0.8,2.9S54.5,13.4,54,14.1z"/>
		<path fill="#F58623" d="M62.8,15.1c-0.2,0-0.4,0-0.6,0c-1,0-1.7-0.3-2.1-0.9c-0.4-0.6-0.6-1.5-0.6-2.8V6.1h-1.6v5.8
			c0,0.7,0.1,1.3,0.2,1.9c0.1,0.6,0.4,1.1,0.7,1.5c0.3,0.4,0.8,0.7,1.3,1c0.5,0.2,1.2,0.3,2,0.3c0.9,0,1.7-0.1,2.4-0.2
			c0.6-0.1,1.2-0.2,1.6-0.3v-10h-1.6v8.8l-0.1,0c-0.1,0-0.2,0.1-0.4,0.1c-0.2,0-0.3,0-0.5,0.1C63.2,15.1,63,15.1,62.8,15.1z"/>
		<path fill="#F58623" d="M73.4,6.1C73.2,6,73,6,72.8,6c-0.2,0-0.4-0.1-0.6-0.1c-0.2,0-0.4,0-0.5,0c-0.8,0-1.5,0.1-2.2,0.2
			c-0.6,0.1-1.1,0.3-1.6,0.4v9.8h1.6V7.5l0.1,0c0.1,0,0.3-0.1,0.7-0.2c0.4-0.1,0.7-0.1,1.1-0.1c0.5,0,1,0,1.4,0.1
			c0.3,0.1,0.5,0.1,0.6,0.1l0.3-1.4C73.6,6.1,73.5,6.1,73.4,6.1z"/>
		<path fill="#F58623" d="M80.2,15c-0.4,0.1-0.9,0.1-1.4,0.1c-0.6,0-1.2-0.1-1.6-0.3c-0.4-0.2-0.8-0.5-1.1-0.8
			c-0.3-0.3-0.5-0.8-0.6-1.3c-0.1-0.5-0.2-1-0.2-1.6c0-1.3,0.3-2.3,0.9-3c0.6-0.7,1.4-1,2.5-1c0.4,0,0.8,0,1.2,0.1
			c0.3,0.1,0.6,0.2,0.9,0.3l0.4-1.3c-0.4-0.1-0.8-0.3-1.2-0.3c-0.5-0.1-0.9-0.1-1.4-0.1c-0.7,0-1.4,0.1-2,0.4
			c-0.6,0.3-1.1,0.6-1.5,1.1c-0.4,0.5-0.7,1-1,1.7c-0.2,0.7-0.3,1.4-0.3,2.2c0,0.8,0.1,1.5,0.3,2.2c0.2,0.6,0.5,1.2,1,1.7
			c0.4,0.5,1,0.8,1.6,1.1c0.8,0.3,1.8,0.5,3,0.3c0.3,0,0.6-0.1,0.8-0.1c0.3,0,0.5-0.1,0.7-0.2c0.1,0,0.3-0.1,0.4-0.1l-0.2-1.3
			C80.8,14.9,80.6,14.9,80.2,15z"/>
		<path fill="#F58623" d="M86.1,5.8c-0.6,0-1.2,0.1-1.7,0.3c-0.6,0.2-1.1,0.6-1.5,1c-0.4,0.4-0.8,1-1,1.7c-0.3,0.7-0.4,1.5-0.4,2.4
			c0,0.8,0.1,1.5,0.3,2.2c0.2,0.6,0.5,1.2,0.9,1.7c0.4,0.5,1,0.8,1.6,1.1c0.6,0.3,1.4,0.4,2.3,0.4c0.7,0,1.4-0.1,1.9-0.2
			c0.5-0.1,0.9-0.2,1.1-0.3l-0.2-1.3c-0.2,0.1-0.5,0.2-0.9,0.3c-0.5,0.1-1,0.2-1.7,0.2c-1.2,0-2.1-0.3-2.7-0.9
			c-0.6-0.6-0.9-1.4-1-2.6l0-0.1h7.2c0-0.1,0-0.1,0-0.2V11c0-1.8-0.4-3.1-1.1-3.9C88.5,6.2,87.5,5.8,86.1,5.8z M88.7,10.3h-5.5
			l0-0.1c0-0.4,0.1-0.7,0.3-1.1c0.1-0.4,0.3-0.7,0.6-1c0.2-0.3,0.5-0.5,0.9-0.7c0.3-0.2,0.7-0.3,1.2-0.3c0.8,0,1.4,0.3,1.9,0.9
			c0.5,0.6,0.7,1.3,0.7,2.2L88.7,10.3z"/>
		<path fill="#24386E" d="M24.4,14.1c-0.1,0-0.2,0.1-0.3,0.1c-0.3,0.1-0.7,0.2-1.3,0.2c-0.3,0-0.5,0-0.8-0.1
			c-0.2-0.1-0.3-0.2-0.5-0.3c-0.1-0.2-0.2-0.4-0.3-0.7c-0.1-0.3-0.1-0.7-0.1-1.2V7.5h4V5.3h-4V3l-2.5,0.4v8.7c0,0.7,0.1,1.4,0.2,1.9
			c0.1,0.6,0.3,1.1,0.7,1.5c0.3,0.4,0.7,0.7,1.2,0.9c0.5,0.2,1.1,0.3,1.9,0.3c0.6,0,1.2-0.1,1.7-0.2c0.5-0.1,0.8-0.2,1-0.3
			c-0.2-0.3-0.5-0.6-0.6-1C24.5,14.8,24.4,14.5,24.4,14.1z"/>
		<path fill="#24386E" d="M12,2l-0.1,0c-0.3,1-0.5,1.8-0.8,2.8c-0.4,1-0.7,2-1.1,3c-0.4,1-0.7,2-1.1,2.9c-0.4,0.9-0.7,1.8-1,2.5
			c-0.3-0.8-0.7-1.6-1-2.6C6.4,9.8,6.1,8.8,5.7,7.8c-0.4-1-0.7-2-1.1-3C4.4,4,3.6,1.8,3.1,0.5L0,0c0.9,2.6,2.5,7,3.4,9.3
			c1,2.5,2,4.9,3.1,7.2h2.6c1.1-2.3,2.1-4.7,3.1-7.2c0.9-2.2,1.7-4.6,2.4-6.9L12,2z"/>
		<polygon fill="#24386E" points="35.4,0.6 35.4,16.4 37.9,16.4 37.9,0.2 		"/>
	</g>
	<g>
		<path fill="#F58623" d="M91.9,5.8V6h-0.6v1.6H91V6h-0.6V5.8H91.9z"/>
		<path fill="#F58623" d="M92.9,7.4c0,0,0-0.1-0.1-0.2c0-0.1-0.1-0.1-0.1-0.2c0-0.1-0.1-0.2-0.1-0.2c0-0.1-0.1-0.2-0.1-0.2
			c0-0.1-0.1-0.1-0.1-0.2c0-0.1-0.1-0.1-0.1-0.1c0,0.2,0,0.4,0,0.7c0,0.2,0,0.5,0,0.7h-0.2c0-0.2,0-0.3,0-0.5c0-0.2,0-0.3,0-0.5
			c0-0.2,0-0.3,0-0.4c0-0.1,0-0.3,0-0.4h0.2c0,0.1,0.1,0.2,0.2,0.3c0.1,0.1,0.1,0.2,0.2,0.3c0.1,0.1,0.1,0.2,0.2,0.3
			C93,6.9,93,7,93,7.1c0-0.1,0.1-0.2,0.1-0.3c0.1-0.1,0.1-0.2,0.2-0.3c0.1-0.1,0.1-0.2,0.2-0.3c0.1-0.1,0.1-0.2,0.2-0.3h0.2
			C93.9,6.4,94,7,94,7.6h-0.2c0-0.2,0-0.5,0-0.7c0-0.2,0-0.5,0-0.7c0,0,0,0.1-0.1,0.1c0,0.1-0.1,0.1-0.1,0.2c0,0.1-0.1,0.1-0.1,0.2
			c0,0.1-0.1,0.2-0.1,0.2c0,0.1-0.1,0.1-0.1,0.2c0,0.1-0.1,0.1-0.1,0.2H92.9z"/>
	</g>
</g>
</svg>
