<?xml version="1.0" encoding="utf-8"?>
<!-- Generator: Adobe Illustrator 17.1.0, SVG Export Plug-In . SVG Version: 6.00 Build 0)  -->
<!DOCTYPE svg PUBLIC "-//W3C//DTD SVG 1.1//EN" "http://www.w3.org/Graphics/SVG/1.1/DTD/svg11.dtd">
<svg version="1.1" id="Layer_1" xmlns="http://www.w3.org/2000/svg" xmlns:xlink="http://www.w3.org/1999/xlink" x="0px" y="0px"
	 viewBox="0 0 214 72.7" enable-background="new 0 0 214 72.7" xml:space="preserve">
<g>
	<rect x="43" y="31.7" fill="#FFFFFF" width="4.8" height="21.5"/>
	<g>
		<g>
			<path fill="#FFFFFF" d="M79.4,33.6c-0.7-0.8-1.6-1.4-2.7-1.8c-1.1-0.4-2.4-0.6-3.9-0.6c-1.3,0-2.5,0.1-3.7,0.3
				c-1.2,0.2-2,0.4-2.5,0.6l-0.4,0.2l0.6,4.2l0.7-0.3c0.4-0.2,1-0.3,1.9-0.5c0.9-0.2,1.9-0.2,3-0.2c0.8,0,1.5,0.1,2,0.4
				c0.5,0.2,0.9,0.5,1.2,0.9c0.3,0.4,0.5,0.8,0.6,1.3c0.1,0.5,0.2,1.1,0.2,1.7v0.3c-0.2,0-0.5-0.1-0.8-0.1c-0.4-0.1-0.8-0.1-1.2-0.2
				c-1.7-0.2-3.2,0-4.6,0.3c-1.1,0.2-2.1,0.6-2.9,1.2c-0.9,0.5-1.6,1.3-2.1,2.2c-0.5,0.9-0.8,2-0.8,3.2c0,1.3,0.2,2.4,0.6,3.3
				c0.4,0.9,1,1.7,1.8,2.2c0.8,0.6,1.7,1,2.7,1.2c1,0.2,2.1,0.4,3.3,0.4c0.8,0,1.7,0,2.5-0.1c0.8-0.1,1.6-0.1,2.3-0.2
				c0.7-0.1,1.4-0.2,1.9-0.3l1.8-0.3V39.6c0-1.2-0.1-2.3-0.4-3.3C80.5,35.3,80.1,34.4,79.4,33.6z M76.5,44.1v5.2
				c-0.3,0-0.7,0.1-1.1,0.1c-0.7,0-1.4,0.1-2.3,0.1c-1.3,0-2.4-0.2-3.1-0.7c-0.7-0.4-1-1.1-1-2.2c0-0.6,0.1-1,0.4-1.3
				c0.3-0.4,0.6-0.6,1.1-0.9c0.5-0.2,1-0.4,1.5-0.4c0.6-0.1,1.1-0.1,1.7-0.1c0.8,0,1.5,0,2,0.1C76.1,44,76.3,44.1,76.5,44.1z"/>
		</g>
	</g>
	<path fill="#FFFFFF" d="M62.4,48.8c-0.2,0.1-0.4,0.1-0.6,0.2c-0.6,0.2-1.4,0.3-2.4,0.3c-0.6,0-1.1-0.1-1.5-0.2
		c-0.4-0.1-0.7-0.3-0.9-0.6c-0.3-0.3-0.5-0.8-0.6-1.3c-0.1-0.6-0.2-1.4-0.2-2.4V36h7.7v-4.2h-7.7v-4.5L51.3,28v16.8
		c0,1.4,0.1,2.6,0.3,3.7c0.2,1.1,0.7,2.1,1.3,2.8c0.6,0.8,1.4,1.4,2.4,1.8c1,0.4,2.2,0.6,3.6,0.6c1.2,0,2.3-0.1,3.3-0.4
		c0.9-0.3,1.5-0.5,1.9-0.7c-0.5-0.5-0.9-1.2-1.2-1.8C62.7,50.1,62.5,49.5,62.4,48.8z"/>
	<path fill="#FFFFFF" d="M38.3,25.3l-0.3,0c-0.6,1.9-0.9,3.5-1.6,5.4c-0.7,2-1.4,4-2.1,5.9c-0.7,1.9-1.4,3.8-2.1,5.6
		c-0.7,1.8-1.3,3.4-2,4.9c-0.7-1.5-1.3-3.2-2-5c-0.7-1.8-1.4-3.7-2.1-5.6c-0.7-1.9-1.4-3.9-2.1-5.9c-0.6-1.7-2.1-5.9-3-8.3l-6.1-1
		c1.8,5.1,4.9,13.5,6.7,18c1.9,4.8,3.9,9.5,5.9,13.9h5c2.1-4.4,4-9.1,5.9-13.9c1.7-4.3,3.2-8.9,4.7-13.3L38.3,25.3z"/>
	<polygon fill="#FFFFFF" points="83.8,22.6 83.8,53.3 88.6,53.3 88.6,21.8 	"/>
</g>
<g>
	<path fill="#FFFFFF" d="M103.5,44.1c-0.5-0.5-1.1-0.9-1.9-1.2c-0.7-0.3-1.6-0.7-2.6-1.1c-0.7-0.3-1.4-0.5-1.9-0.8
		c-0.5-0.2-1-0.5-1.4-0.8c-0.4-0.3-0.7-0.6-0.9-1c-0.2-0.4-0.3-0.8-0.3-1.3c0-1,0.4-1.7,1.3-2.1c0.8-0.4,1.7-0.6,2.8-0.6
		c1.2,0,2.2,0.1,3.1,0.3c0.7,0.2,1.2,0.4,1.6,0.5l0.6-2.6c-0.2-0.1-0.4-0.1-0.7-0.2c-0.4-0.1-0.8-0.2-1.3-0.3
		c-0.5-0.1-1-0.2-1.6-0.2c-0.6-0.1-1.1-0.1-1.7-0.1c-2.2,0-4,0.5-5.3,1.5c-1.3,1-1.9,2.4-1.9,4.1c0,0.9,0.1,1.6,0.4,2.2
		c0.3,0.6,0.7,1.1,1.2,1.5c0.5,0.4,1.1,0.8,1.8,1.1c0.7,0.3,1.5,0.6,2.2,1c1.6,0.7,2.8,1.3,3.5,1.8c0.8,0.6,1.2,1.4,1.2,2.3
		c0,1-0.4,1.7-1.2,2.1c-0.8,0.4-1.9,0.6-3.4,0.6c-1.5,0-2.8-0.2-3.7-0.5c-0.7-0.3-1.3-0.5-1.7-0.6l-0.6,2.6c0.4,0.1,1,0.3,1.9,0.6
		c1,0.3,2.4,0.4,4.2,0.4c2.5,0,4.5-0.5,5.8-1.4c1.3-0.9,2-2.3,2-4.1c0-0.9-0.1-1.7-0.4-2.3C104.4,45.1,104,44.6,103.5,44.1z"/>
	<path fill="#FFFFFF" d="M122.1,35.6c-0.8-0.9-1.8-1.6-2.9-2.1c-1.1-0.5-2.4-0.7-3.7-0.7c-1.3,0-2.6,0.2-3.7,0.7
		c-1.1,0.5-2.1,1.2-2.9,2.1c-0.8,0.9-1.5,2-1.9,3.3c-0.5,1.3-0.7,2.7-0.7,4.3c0,1.6,0.2,3,0.7,4.3c0.5,1.3,1.1,2.4,1.9,3.3
		c0.8,0.9,1.8,1.6,2.9,2.1c1.1,0.5,2.4,0.7,3.7,0.7c1.3,0,2.6-0.3,3.7-0.7c1.1-0.5,2.1-1.2,2.9-2.1c0.8-0.9,1.5-2,1.9-3.3
		c0.5-1.3,0.7-2.7,0.7-4.3c0-1.6-0.2-3-0.7-4.3C123.6,37.6,122.9,36.5,122.1,35.6z M119.9,48.8c-1.1,1.4-2.6,2.1-4.4,2.1
		c-1.9,0-3.3-0.7-4.4-2.1c-1.1-1.4-1.6-3.3-1.6-5.6s0.5-4.2,1.6-5.6c1.1-1.4,2.6-2.1,4.4-2.1c1.8,0,3.3,0.7,4.4,2.1
		c1.1,1.4,1.6,3.3,1.6,5.6S120.9,47.4,119.9,48.8z"/>
	<path fill="#FFFFFF" d="M136.9,50.8c-0.4,0-0.8,0-1.2,0c-1.9,0-3.3-0.6-4.2-1.7c-0.8-1.1-1.2-3-1.2-5.5V33.2h-3.1v11.2
		c0,1.4,0.1,2.6,0.4,3.7c0.3,1.1,0.7,2.1,1.4,2.9c0.6,0.8,1.5,1.4,2.5,1.9c1,0.4,2.3,0.7,3.9,0.7c1.8,0,3.4-0.1,4.7-0.3
		c1.3-0.2,2.3-0.4,3.1-0.6V33.2H140v17.1l-0.2,0.1c-0.2,0.1-0.4,0.1-0.7,0.2c-0.3,0-0.6,0.1-1,0.1C137.7,50.7,137.3,50.7,136.9,50.8
		z"/>
	<path fill="#FFFFFF" d="M157.5,33.2c-0.3-0.1-0.7-0.1-1.1-0.2c-0.4-0.1-0.8-0.1-1.2-0.2c-0.4,0-0.7-0.1-1.1-0.1
		c-1.6,0-3,0.1-4.3,0.4c-1.2,0.3-2.2,0.5-3,0.8v19.1h3.1V36l0.2,0c0.2-0.1,0.6-0.2,1.3-0.3c0.7-0.1,1.4-0.2,2.1-0.2
		c1.1,0,1.9,0.1,2.6,0.2c0.5,0.1,0.9,0.2,1.2,0.3l0.5-2.7C157.8,33.3,157.7,33.2,157.5,33.2z"/>
	<path fill="#FFFFFF" d="M170.8,50.6c-0.8,0.2-1.7,0.3-2.7,0.3c-1.2,0-2.3-0.2-3.2-0.5c-0.9-0.4-1.6-0.9-2.2-1.6
		c-0.6-0.7-1-1.5-1.2-2.4c-0.3-0.9-0.4-2-0.4-3.1c0-2.5,0.6-4.4,1.7-5.8c1.1-1.3,2.8-2,4.9-2c0.8,0,1.6,0.1,2.3,0.2
		c0.6,0.1,1.2,0.3,1.7,0.5l0.7-2.6c-0.8-0.3-1.5-0.5-2.4-0.6c-0.9-0.2-1.8-0.2-2.7-0.2c-1.4,0-2.8,0.3-4,0.8c-1.2,0.5-2.2,1.2-3,2.2
		c-0.8,0.9-1.4,2-1.9,3.3c-0.4,1.3-0.7,2.7-0.7,4.2c0,1.5,0.2,3,0.6,4.2c0.4,1.3,1,2.3,1.8,3.3c0.8,0.9,1.8,1.6,3,2.1
		c1.6,0.7,3.5,0.9,5.8,0.7c0.5-0.1,1.1-0.1,1.6-0.2c0.5-0.1,0.9-0.2,1.3-0.3c0.3-0.1,0.5-0.2,0.7-0.3l-0.4-2.6
		C172,50.2,171.4,50.4,170.8,50.6z"/>
	<path fill="#FFFFFF" d="M182.2,32.7c-1.1,0-2.3,0.2-3.4,0.6c-1.1,0.4-2.1,1.1-2.9,1.9c-0.8,0.9-1.5,2-2,3.3
		c-0.5,1.3-0.8,2.9-0.8,4.6c0,1.5,0.2,2.9,0.6,4.2c0.4,1.3,1,2.3,1.8,3.3c0.8,0.9,1.8,1.6,3.1,2.1c1.3,0.5,2.8,0.8,4.5,0.8
		c1.4,0,2.6-0.1,3.7-0.4c1-0.2,1.7-0.4,2.1-0.6l-0.4-2.5c-0.4,0.2-1,0.3-1.7,0.5c-0.9,0.2-2,0.3-3.3,0.3c-2.3,0-4.1-0.6-5.2-1.7
		c-1.1-1.1-1.8-2.8-1.9-5l0-0.3h14c0-0.1,0-0.3,0-0.4v-0.6c0-3.4-0.7-6-2.1-7.6C186.9,33.5,184.8,32.7,182.2,32.7z M187.1,41.4
		h-10.6l0-0.3c0.1-0.7,0.2-1.4,0.5-2.1c0.3-0.7,0.6-1.3,1.1-1.9c0.5-0.5,1-1,1.7-1.3c0.7-0.3,1.5-0.5,2.3-0.5c1.6,0,2.8,0.6,3.7,1.7
		c0.9,1.1,1.3,2.5,1.3,4.2L187.1,41.4z"/>
	<g>
		<path fill="#FFFFFF" d="M193.4,32.7v0.4h-1.1v3.1h-0.5v-3.1h-1.1v-0.4H193.4z"/>
		<path fill="#FFFFFF" d="M195.4,35.7c0-0.1-0.1-0.2-0.1-0.3c-0.1-0.1-0.1-0.3-0.2-0.4c-0.1-0.1-0.1-0.3-0.2-0.4
			c-0.1-0.2-0.1-0.3-0.2-0.4c-0.1-0.1-0.1-0.3-0.2-0.4c-0.1-0.1-0.1-0.2-0.1-0.2c0,0.4-0.1,0.8-0.1,1.3c0,0.5,0,0.9-0.1,1.4h-0.5
			c0-0.3,0-0.6,0-0.9c0-0.3,0-0.6,0.1-0.9c0-0.3,0-0.6,0.1-0.9c0-0.3,0.1-0.6,0.1-0.8h0.4c0.1,0.1,0.2,0.3,0.3,0.5
			c0.1,0.2,0.2,0.4,0.3,0.6c0.1,0.2,0.2,0.4,0.3,0.7c0.1,0.2,0.2,0.4,0.3,0.6c0.1-0.2,0.2-0.4,0.3-0.6c0.1-0.2,0.2-0.4,0.3-0.7
			c0.1-0.2,0.2-0.4,0.3-0.6c0.1-0.2,0.2-0.4,0.3-0.5h0.4c0.1,1.1,0.2,2.3,0.3,3.5H197c0-0.5,0-0.9-0.1-1.4c0-0.5-0.1-0.9-0.1-1.3
			c0,0.1-0.1,0.1-0.1,0.2c-0.1,0.1-0.1,0.2-0.2,0.4c-0.1,0.1-0.1,0.3-0.2,0.4c-0.1,0.2-0.1,0.3-0.2,0.4c-0.1,0.1-0.1,0.3-0.2,0.4
			c-0.1,0.1-0.1,0.2-0.1,0.3H195.4z"/>
	</g>
</g>
</svg>
